<?xml version="1.0" encoding="UTF-8"?>
<svg xmlns="http://www.w3.org/2000/svg" xmlns:xlink="http://www.w3.org/1999/xlink" width="375pt" height="374.999991pt" viewBox="0 0 375 374.999991" version="1.2">
<defs>
<clipPath id="clip1">
  <path d="M 101 13 L 374.636719 13 L 374.636719 236 L 101 236 Z M 101 13 "/>
</clipPath>
<clipPath id="clip2">
  <path d="M 3.5625 0 L 361 0 L 361 358 L 3.5625 358 Z M 3.5625 0 "/>
</clipPath>
<clipPath id="clip3">
  <path d="M 3.5625 0 L 272 0 L 272 338 L 3.5625 338 Z M 3.5625 0 "/>
</clipPath>
<clipPath id="clip4">
  <path d="M 94.472656 76.34375 L 283.84375 76.34375 L 283.84375 210.183594 L 94.472656 210.183594 Z M 94.472656 76.34375 "/>
</clipPath>
<clipPath id="clip5">
  <path d="M 123.785156 143.183594 L 254.777344 143.183594 L 254.777344 285.566406 L 123.785156 285.566406 Z M 123.785156 143.183594 "/>
</clipPath>
</defs>
<g id="surface1">
<path style=" stroke:none;fill-rule:nonzero;fill:rgb(100%,76.469421%,39.219666%);fill-opacity:1;" d="M 17.28125 191.984375 C 17.28125 290.664062 97.277344 370.660156 195.957031 370.660156 C 216.304688 370.660156 235.777344 367.097656 254 360.832031 L 17.441406 188.832031 C 17.421875 189.894531 17.28125 190.921875 17.28125 191.984375 "/>
<g clip-path="url(#clip1)" clip-rule="nonzero">
<path style=" stroke:none;fill-rule:nonzero;fill:rgb(96.078491%,46.269226%,1.179504%);fill-opacity:1;" d="M 374.636719 191.984375 C 374.636719 93.304688 294.636719 13.308594 195.957031 13.308594 C 161.113281 13.308594 128.710938 23.4375 101.222656 40.6875 L 369.089844 235.445312 C 372.578125 221.507812 374.636719 207.003906 374.636719 191.984375 "/>
</g>
<path style=" stroke:none;fill-rule:nonzero;fill:rgb(100%,64.309692%,8.239746%);fill-opacity:1;" d="M 369.117188 235.457031 C 354.378906 294.234375 310.707031 341.3125 253.953125 360.847656 L 17.449219 188.835938 C 18.554688 126.277344 51.722656 71.734375 101.195312 40.6875 L 369.117188 235.457031 "/>
<g clip-path="url(#clip2)" clip-rule="nonzero">
<path style=" stroke:none;fill-rule:nonzero;fill:rgb(100%,83.918762%,17.248535%);fill-opacity:1;" d="M 360.933594 179.003906 C 360.933594 80.324219 280.933594 0.328125 182.253906 0.328125 C 83.570312 0.328125 3.574219 80.324219 3.574219 179.003906 C 3.574219 277.6875 83.570312 357.683594 182.253906 357.683594 C 280.933594 357.683594 360.933594 277.6875 360.933594 179.003906 "/>
</g>
<g clip-path="url(#clip3)" clip-rule="nonzero">
<path style=" stroke:none;fill-rule:nonzero;fill:rgb(100%,89.019775%,43.528748%);fill-opacity:1;" d="M 9.3125 182.222656 C 9.3125 83.539062 89.3125 3.546875 187.992188 3.546875 C 217.980469 3.546875 246.195312 11.015625 271.011719 24.078125 C 244.84375 9.046875 214.59375 0.328125 182.253906 0.328125 C 83.570312 0.328125 3.574219 80.324219 3.574219 179.003906 C 3.574219 247.699219 42.390625 307.25 99.238281 337.152344 C 45.550781 306.332031 9.3125 248.5625 9.3125 182.222656 "/>
</g>
<path style=" stroke:none;fill-rule:nonzero;fill:rgb(100%,64.309692%,8.239746%);fill-opacity:1;" d="M 326.125 179.003906 C 326.125 99.546875 261.710938 35.136719 182.253906 35.136719 C 102.796875 35.136719 38.378906 99.546875 38.378906 179.003906 C 38.378906 258.464844 102.796875 322.875 182.253906 322.875 C 261.710938 322.875 326.125 258.464844 326.125 179.003906 "/>
<path style=" stroke:none;fill-rule:nonzero;fill:rgb(96.078491%,46.269226%,0.389099%);fill-opacity:1;" d="M 194.273438 48.109375 C 232.988281 48.109375 268.0625 63.484375 293.925781 88.359375 C 267.542969 55.902344 227.339844 35.136719 182.253906 35.136719 C 159.226562 35.136719 137.542969 40.675781 118.242188 50.296875 L 135.964844 60.527344 C 153.792969 52.601562 173.492188 48.109375 194.273438 48.109375 "/>
<path style=" stroke:none;fill-rule:nonzero;fill:rgb(96.078491%,46.269226%,0.389099%);fill-opacity:1;" d="M 82.597656 282.628906 C 63.273438 258.84375 51.46875 228.769531 50.570312 195.949219 L 38.910156 189.21875 C 41.503906 225.839844 57.6875 258.667969 82.597656 282.628906 "/>
<path style=" stroke:none;fill-rule:nonzero;fill:rgb(96.078491%,37.649536%,0%);fill-opacity:1;" d="M 50.433594 191.964844 C 50.433594 193.347656 50.527344 194.640625 50.617188 195.929688 L 38.914062 189.203125 C 38.636719 185.796875 38.363281 182.476562 38.363281 178.980469 C 38.363281 122.589844 70.980469 73.851562 118.242188 50.265625 L 135.929688 60.496094 C 85.625 82.882812 50.433594 133.277344 50.433594 191.964844 "/>
<path style=" stroke:none;fill-rule:nonzero;fill:rgb(26.669312%,12.939453%,9.408569%);fill-opacity:1;" d="M 154.464844 150.425781 L 224.058594 150.425781 L 224.058594 164.644531 L 154.464844 164.644531 Z M 154.464844 150.425781 "/>
<g clip-path="url(#clip4)" clip-rule="nonzero">
<path style=" stroke:none;fill-rule:nonzero;fill:rgb(26.669312%,12.939453%,9.408569%);fill-opacity:1;" d="M 102.105469 118.433594 C 101.859375 119.261719 101.644531 120.097656 101.464844 120.9375 C 100.964844 123.261719 100.75 125.578125 100.824219 127.835938 C 100.890625 130.160156 101.289062 132.527344 102.007812 134.882812 C 103.324219 139.238281 105.753906 143.507812 109.230469 147.574219 C 112.199219 151.042969 115.746094 154.253906 120.066406 157.371094 C 123.761719 160.023438 127.796875 162.492188 132.402344 164.890625 C 136.519531 167.03125 140.796875 168.980469 145.472656 170.824219 C 146.988281 171.421875 148.648438 172.03125 150.542969 172.707031 L 151.882812 173.179688 L 152.410156 174.496094 C 153.386719 176.976562 154.9375 179.199219 156.898438 180.945312 L 177.925781 199.644531 C 181.128906 202.488281 185.144531 203.910156 189.160156 203.910156 C 193.171875 203.910156 197.1875 202.488281 200.390625 199.644531 L 221.417969 180.945312 C 223.378906 179.199219 224.933594 176.976562 225.90625 174.496094 L 226.433594 173.179688 L 227.785156 172.707031 C 229.664062 172.03125 231.324219 171.421875 232.851562 170.824219 C 237.527344 168.980469 241.800781 167.03125 245.921875 164.890625 C 250.515625 162.492188 254.558594 160.023438 258.261719 157.371094 C 262.570312 154.253906 266.113281 151.042969 269.085938 147.574219 C 272.558594 143.507812 274.992188 139.238281 276.316406 134.886719 C 277.03125 132.527344 277.425781 130.160156 277.492188 127.84375 C 277.574219 125.578125 277.359375 123.261719 276.859375 120.941406 L 276.859375 120.9375 C 276.667969 120.097656 276.453125 119.261719 276.207031 118.433594 C 276.25 119.320312 276.234375 120.207031 276.195312 121.085938 C 276.007812 125.609375 274.722656 129.875 272.464844 133.421875 C 270.4375 136.667969 267.53125 139.605469 263.828125 142.15625 C 257.976562 146.164062 250.421875 149.199219 240.757812 151.40625 C 236.800781 152.300781 232.597656 153.019531 228.242188 153.535156 C 226.109375 153.792969 223.988281 153.996094 221.945312 154.144531 L 221.214844 154.183594 C 221.082031 154.183594 220.945312 154.199219 220.796875 154.199219 L 219.824219 154.265625 L 218.984375 153.75 C 216.335938 152.125 213.296875 151.273438 210.1875 151.273438 L 168.128906 151.273438 C 165.027344 151.273438 161.984375 152.125 159.328125 153.75 L 158.492188 154.265625 L 157.515625 154.199219 C 157.375 154.199219 157.234375 154.183594 157.097656 154.183594 C 156.855469 154.171875 156.617188 154.160156 156.375 154.144531 C 154.332031 153.996094 152.210938 153.792969 150.074219 153.535156 C 145.722656 153.019531 141.519531 152.300781 137.570312 151.40625 C 127.890625 149.199219 120.34375 146.164062 114.496094 142.160156 C 110.789062 139.605469 107.882812 136.667969 105.847656 133.421875 C 103.597656 129.875 102.308594 125.609375 102.117188 121.085938 C 102.078125 120.210938 102.074219 119.324219 102.105469 118.433594 Z M 189.160156 210.183594 C 183.660156 210.183594 178.160156 208.234375 173.773438 204.332031 L 152.746094 185.632812 C 150.417969 183.558594 148.511719 181 147.175781 178.152344 C 145.730469 177.640625 144.417969 177.136719 143.1875 176.664062 C 138.300781 174.726562 133.832031 172.707031 129.515625 170.457031 C 124.644531 167.910156 120.359375 165.296875 116.414062 162.449219 C 111.679688 159.050781 107.777344 155.511719 104.480469 151.652344 C 100.4375 146.921875 97.59375 141.898438 96.023438 136.710938 C 95.144531 133.824219 94.65625 130.902344 94.570312 128.03125 C 94.480469 125.273438 94.742188 122.4375 95.347656 119.617188 C 95.90625 117.023438 96.734375 114.476562 97.8125 112.054688 C 98.09375 111.382812 98.367188 110.785156 98.65625 110.234375 L 99.535156 108.5 C 99.703125 108.210938 99.867188 107.917969 100.03125 107.628906 C 100.449219 106.878906 100.886719 106.105469 101.402344 105.332031 C 103.804688 101.539062 106.699219 97.878906 110.246094 94.132812 L 127.109375 76.347656 L 115.25 97.8125 C 113.015625 101.855469 111.289062 105.777344 110.109375 109.46875 L 110.082031 109.554688 C 109.875 110.140625 109.703125 110.78125 109.523438 111.460938 C 109.445312 111.773438 109.363281 112.085938 109.273438 112.394531 L 108.945312 113.929688 C 108.859375 114.304688 108.785156 114.71875 108.71875 115.207031 L 108.703125 115.304688 C 108.394531 117.140625 108.28125 118.992188 108.367188 120.800781 L 108.367188 120.820312 C 108.511719 124.246094 109.46875 127.445312 111.132812 130.070312 L 111.144531 130.085938 C 112.722656 132.601562 115.039062 134.921875 118.03125 136.988281 C 123.214844 140.539062 130.0625 143.257812 138.957031 145.296875 C 142.683594 146.136719 146.675781 146.816406 150.8125 147.316406 C 152.847656 147.558594 154.867188 147.75 156.8125 147.886719 L 156.941406 147.886719 C 160.367188 146 164.214844 145 168.128906 145 L 210.1875 145 C 214.105469 145 217.957031 146 221.378906 147.886719 L 221.5 147.886719 C 223.445312 147.75 225.472656 147.558594 227.515625 147.316406 C 231.636719 146.816406 235.636719 146.136719 239.367188 145.296875 C 248.257812 143.257812 255.097656 140.539062 260.289062 136.984375 C 263.273438 134.925781 265.597656 132.601562 267.167969 130.085938 L 267.179688 130.070312 C 268.855469 127.445312 269.800781 124.246094 269.953125 120.820312 L 269.953125 120.800781 C 270.03125 118.988281 269.925781 117.140625 269.613281 115.304688 L 269.601562 115.207031 C 269.53125 114.71875 269.464844 114.304688 269.371094 113.929688 L 269.355469 113.875 L 269.046875 112.394531 C 268.953125 112.085938 268.871094 111.777344 268.789062 111.464844 C 268.613281 110.785156 268.449219 110.140625 268.234375 109.550781 L 268.207031 109.46875 C 267.03125 105.773438 265.300781 101.855469 263.070312 97.8125 L 251.207031 76.34375 L 268.074219 94.132812 C 271.628906 97.878906 274.519531 101.542969 276.910156 105.332031 C 277.425781 106.105469 277.871094 106.878906 278.289062 107.628906 C 278.453125 107.917969 278.613281 108.210938 278.777344 108.5 L 278.871094 108.664062 L 279.65625 110.234375 C 279.953125 110.785156 280.222656 111.382812 280.507812 112.050781 C 281.585938 114.472656 282.414062 117.019531 282.964844 119.621094 C 283.574219 122.441406 283.832031 125.273438 283.75 128.039062 C 283.65625 130.902344 283.167969 133.824219 282.289062 136.710938 C 280.722656 141.898438 277.882812 146.921875 273.84375 151.652344 C 270.546875 155.511719 266.640625 159.035156 261.910156 162.449219 C 257.964844 165.296875 253.679688 167.910156 248.800781 170.457031 C 244.488281 172.707031 240.015625 174.726562 235.136719 176.648438 C 233.894531 177.136719 232.582031 177.640625 231.148438 178.152344 C 229.8125 181 227.90625 183.558594 225.566406 185.632812 L 204.539062 204.332031 C 200.160156 208.234375 194.660156 210.183594 189.160156 210.183594 "/>
</g>
<g clip-path="url(#clip5)" clip-rule="nonzero">
<path style=" stroke:none;fill-rule:evenodd;fill:rgb(26.669312%,12.939453%,9.408569%);fill-opacity:1;" d="M 189.257812 285.570312 L 178.269531 274.515625 L 178.269531 284.601562 L 163.042969 271.246094 L 159.03125 278.707031 L 146.402344 268.117188 L 141.570312 250.199219 L 135.277344 256.785156 L 129.257812 245.320312 L 129.394531 221.558594 L 123.832031 227.175781 L 123.832031 204.519531 L 136.871094 175 L 138.695312 173.15625 L 125.65625 167.171875 L 124.289062 153.539062 L 134.183594 143.179688 L 153.101562 144.144531 L 155.976562 155.703125 L 157.796875 153.863281 L 189.257812 149.996094 L 220.757812 153.863281 L 222.675781 155.84375 L 225.59375 144.144531 L 244.46875 143.179688 L 254.40625 153.539062 L 253.035156 167.171875 L 239.90625 173.203125 L 241.683594 175 L 254.722656 204.519531 L 254.722656 227.175781 L 249.164062 221.558594 L 249.253906 245.320312 L 243.234375 256.785156 L 236.988281 250.199219 L 232.15625 268.117188 L 219.484375 278.707031 L 215.515625 271.246094 L 200.242188 284.601562 L 200.242188 274.515625 L 189.257812 285.570312 "/>
</g>
<path style=" stroke:none;fill-rule:evenodd;fill:rgb(89.408875%,54.899597%,30.979919%);fill-opacity:1;" d="M 171.386719 256.785156 L 176.125 265.121094 L 202.386719 265.121094 L 207.171875 256.785156 L 192.675781 252.828125 L 185.835938 252.828125 L 171.386719 256.785156 "/>
<path style=" stroke:none;fill-rule:evenodd;fill:rgb(92.549133%,69.799805%,49.409485%);fill-opacity:1;" d="M 177.265625 205.714844 L 162.039062 228.832031 L 162.039062 251.765625 L 170.792969 260.609375 L 189.257812 255.632812 L 207.71875 260.609375 L 216.472656 251.765625 L 216.472656 228.832031 L 201.292969 205.714844 L 195.59375 199.820312 L 182.964844 199.820312 L 177.265625 205.714844 "/>
<path style=" stroke:none;fill-rule:evenodd;fill:rgb(6.269836%,5.879211%,5.099487%);fill-opacity:1;" d="M 189.257812 230.167969 L 195.046875 232.472656 L 200.792969 234.726562 L 200.792969 243.800781 L 195.046875 246.101562 L 189.257812 248.359375 L 183.511719 246.101562 L 177.722656 243.800781 L 177.722656 234.726562 L 183.511719 232.472656 L 189.257812 230.167969 "/>
<path style=" stroke:none;fill-rule:evenodd;fill:rgb(6.269836%,5.879211%,5.099487%);fill-opacity:1;" d="M 227.234375 195.8125 L 202.292969 204.242188 L 206.078125 208.480469 L 226.503906 205.253906 Z M 151.324219 195.261719 L 176.261719 203.6875 L 172.433594 207.925781 L 152.007812 204.703125 L 151.324219 195.261719 "/>
<path style=" stroke:none;fill-rule:evenodd;fill:rgb(94.119263%,80.778503%,67.449951%);fill-opacity:1;" d="M 136.144531 145.664062 L 127.117188 153.769531 L 127.9375 165.050781 L 144.988281 173.757812 L 139.882812 175 L 126.933594 204.148438 L 126.933594 221.003906 L 129.625 204.425781 L 142.296875 177.625 L 152.238281 173.480469 L 131.039062 163.714844 L 130.214844 154.597656 L 136.144531 145.664062 "/>
<path style=" stroke:none;fill-rule:evenodd;fill:rgb(94.119263%,80.778503%,67.449951%);fill-opacity:1;" d="M 183.738281 201.433594 L 178.316406 206.128906 L 163.632812 229.386719 L 163.632812 250.570312 L 171.386719 258.398438 L 183.464844 255.265625 L 172.070312 255.683594 L 165.820312 249.832031 L 165.867188 229.753906 L 179.957031 207.234375 L 183.738281 201.433594 "/>
<path style=" stroke:none;fill-rule:evenodd;fill:rgb(94.119263%,80.778503%,67.449951%);fill-opacity:1;" d="M 131.71875 217.457031 L 131.71875 244.535156 L 136.324219 252.640625 L 133.953125 243.753906 L 131.71875 217.457031 "/>
<path style=" stroke:none;fill-rule:evenodd;fill:rgb(94.119263%,80.778503%,67.449951%);fill-opacity:1;" d="M 140.703125 239.378906 L 148.863281 266.503906 L 159.441406 275.757812 L 150.640625 264.984375 L 140.703125 239.378906 "/>
</g>
</svg>
