<?xml version="1.0" encoding="UTF-8"?>
<svg xmlns="http://www.w3.org/2000/svg" xmlns:xlink="http://www.w3.org/1999/xlink" width="375pt" height="374.999991pt" viewBox="0 0 375 374.999991" version="1.2">
<defs>
<clipPath id="clip1">
  <path d="M 19.230469 0 L 359.238281 0 L 359.238281 239.296875 L 19.230469 239.296875 Z M 19.230469 0 "/>
</clipPath>
<clipPath id="clip2">
  <path d="M 71.765625 119.800781 L 306.445312 119.800781 L 306.445312 374.804688 L 71.765625 374.804688 Z M 71.765625 119.800781 "/>
</clipPath>
</defs>
<g id="surface1">
<g clip-path="url(#clip1)" clip-rule="nonzero">
<path style=" stroke:none;fill-rule:nonzero;fill:rgb(100%,100%,100%);fill-opacity:1;" d="M 32.933594 75.257812 C 32.492188 76.734375 32.105469 78.226562 31.78125 79.730469 C 30.882812 83.882812 30.5 88.03125 30.628906 92.0625 C 30.753906 96.214844 31.46875 100.453125 32.753906 104.664062 C 35.125 112.453125 39.488281 120.085938 45.722656 127.351562 C 51.054688 133.554688 57.421875 139.296875 65.179688 144.867188 C 71.816406 149.617188 79.0625 154.023438 87.328125 158.3125 C 94.71875 162.140625 102.402344 165.628906 110.800781 168.921875 C 113.519531 169.988281 116.5 171.078125 119.898438 172.292969 L 122.308594 173.140625 L 123.25 175.488281 C 125.003906 179.921875 127.792969 183.894531 131.308594 187.019531 L 169.066406 220.453125 C 174.816406 225.539062 182.027344 228.082031 189.234375 228.082031 C 196.441406 228.082031 203.648438 225.539062 209.398438 220.453125 L 247.15625 187.019531 C 250.675781 183.894531 253.464844 179.921875 255.214844 175.488281 L 256.160156 173.140625 L 258.585938 172.292969 C 261.960938 171.078125 264.945312 169.988281 267.6875 168.921875 C 276.082031 165.628906 283.75 162.140625 291.152344 158.3125 C 299.402344 154.023438 306.65625 149.617188 313.304688 144.867188 C 321.046875 139.296875 327.40625 133.554688 332.742188 127.351562 C 338.980469 120.085938 343.347656 112.453125 345.726562 104.671875 C 347.011719 100.453125 347.714844 96.214844 347.835938 92.074219 C 347.980469 88.03125 347.59375 83.882812 346.695312 79.742188 L 346.695312 79.730469 C 346.355469 78.226562 345.96875 76.734375 345.53125 75.257812 C 345.605469 76.839844 345.578125 78.421875 345.507812 79.992188 C 345.167969 88.082031 342.863281 95.710938 338.808594 102.054688 C 335.167969 107.855469 329.953125 113.109375 323.304688 117.667969 C 312.796875 124.832031 299.230469 130.261719 281.882812 134.207031 C 274.773438 135.808594 267.226562 137.089844 259.410156 138.011719 C 255.578125 138.472656 251.765625 138.835938 248.101562 139.101562 L 246.792969 139.175781 C 246.550781 139.175781 246.308594 139.199219 246.039062 139.199219 L 244.292969 139.320312 L 242.789062 138.398438 C 238.03125 135.492188 232.574219 133.964844 226.992188 133.964844 L 151.480469 133.964844 C 145.90625 133.964844 140.441406 135.492188 135.675781 138.398438 L 134.175781 139.320312 L 132.417969 139.199219 C 132.167969 139.199219 131.917969 139.175781 131.667969 139.175781 C 131.234375 139.152344 130.804688 139.125 130.371094 139.101562 C 126.699219 138.835938 122.894531 138.472656 119.0625 138.011719 C 111.25 137.089844 103.695312 135.808594 96.609375 134.207031 C 79.226562 130.261719 65.679688 124.832031 55.175781 117.675781 C 48.519531 113.109375 43.304688 107.855469 39.652344 102.054688 C 35.613281 95.710938 33.296875 88.082031 32.957031 79.996094 C 32.882812 78.429688 32.875 76.84375 32.933594 75.257812 Z M 189.234375 239.296875 C 179.359375 239.296875 169.488281 235.808594 161.613281 228.832031 L 123.855469 195.402344 C 119.679688 191.695312 116.253906 187.117188 113.851562 182.03125 C 111.261719 181.109375 108.902344 180.210938 106.691406 179.363281 C 97.921875 175.902344 89.894531 172.292969 82.148438 168.269531 C 73.398438 163.714844 65.707031 159.039062 58.621094 153.953125 C 50.125 147.871094 43.117188 141.550781 37.195312 134.644531 C 29.941406 126.191406 24.832031 117.203125 22.011719 107.929688 C 20.433594 102.769531 19.558594 97.546875 19.402344 92.414062 C 19.242188 87.480469 19.710938 82.414062 20.800781 77.371094 C 21.800781 72.730469 23.289062 68.175781 25.226562 63.847656 C 25.726562 62.648438 26.222656 61.582031 26.738281 60.59375 L 28.316406 57.496094 C 28.621094 56.972656 28.914062 56.453125 29.207031 55.929688 C 29.960938 54.59375 30.742188 53.210938 31.671875 51.828125 C 35.980469 45.050781 41.175781 38.5 47.546875 31.808594 L 77.824219 0.0078125 L 56.53125 38.386719 C 52.523438 45.613281 49.417969 52.621094 47.300781 59.222656 L 47.25 59.375 C 46.878906 60.429688 46.578125 61.574219 46.253906 62.789062 C 46.109375 63.347656 45.960938 63.902344 45.804688 64.453125 L 45.214844 67.203125 C 45.058594 67.867188 44.925781 68.609375 44.804688 69.480469 L 44.777344 69.65625 C 44.226562 72.941406 44.023438 76.25 44.175781 79.488281 L 44.175781 79.523438 C 44.433594 85.648438 46.148438 91.367188 49.140625 96.054688 L 49.160156 96.085938 C 51.992188 100.582031 56.152344 104.734375 61.527344 108.425781 C 70.835938 114.777344 83.125 119.640625 99.09375 123.28125 C 105.789062 124.785156 112.957031 125.996094 120.382812 126.894531 C 124.035156 127.328125 127.660156 127.667969 131.160156 127.910156 L 131.390625 127.910156 C 137.539062 124.542969 144.445312 122.75 151.480469 122.75 L 226.992188 122.75 C 234.027344 122.75 240.945312 124.542969 247.085938 127.910156 L 247.300781 127.910156 C 250.796875 127.667969 254.4375 127.328125 258.101562 126.894531 C 265.503906 125.996094 272.683594 124.785156 279.382812 123.28125 C 295.347656 119.640625 307.628906 114.777344 316.945312 108.417969 C 322.308594 104.738281 326.480469 100.585938 329.296875 96.085938 L 329.320312 96.054688 C 332.332031 91.367188 334.027344 85.648438 334.296875 79.523438 L 334.296875 79.488281 C 334.441406 76.246094 334.246094 72.941406 333.6875 69.65625 L 333.664062 69.480469 C 333.542969 68.609375 333.421875 67.867188 333.253906 67.199219 L 333.226562 67.101562 L 332.671875 64.453125 C 332.5 63.902344 332.355469 63.351562 332.210938 62.792969 C 331.894531 61.574219 331.601562 60.429688 331.214844 59.371094 L 331.164062 59.222656 C 329.054688 52.621094 325.949219 45.613281 321.945312 38.386719 L 300.640625 0.00390625 L 330.921875 31.808594 C 337.304688 38.5 342.496094 45.050781 346.792969 51.828125 C 347.714844 53.210938 348.515625 54.59375 349.269531 55.9375 C 349.558594 56.453125 349.851562 56.976562 350.140625 57.496094 L 350.3125 57.785156 L 351.71875 60.589844 C 352.253906 61.578125 352.738281 62.648438 353.246094 63.84375 C 355.1875 68.171875 356.667969 72.726562 357.664062 77.378906 C 358.757812 82.417969 359.21875 87.484375 359.070312 92.425781 C 358.902344 97.546875 358.027344 102.769531 356.449219 107.933594 C 353.636719 117.203125 348.539062 126.191406 341.285156 134.644531 C 335.363281 141.550781 328.351562 147.847656 319.859375 153.953125 C 312.773438 159.039062 305.078125 163.714844 296.320312 168.269531 C 288.578125 172.292969 280.546875 175.902344 271.785156 179.339844 C 269.554688 180.210938 267.199219 181.109375 264.628906 182.03125 C 262.226562 187.117188 258.804688 191.695312 254.605469 195.402344 L 216.847656 228.832031 C 208.988281 235.808594 199.109375 239.296875 189.234375 239.296875 "/>
</g>
<path style=" stroke:none;fill-rule:nonzero;fill:rgb(100%,100%,100%);fill-opacity:1;" d="M 126.757812 132.777344 L 251.492188 132.777344 L 251.492188 158.265625 L 126.757812 158.265625 Z M 126.757812 132.777344 "/>
<g clip-path="url(#clip2)" clip-rule="nonzero">
<path style=" stroke:none;fill-rule:evenodd;fill:rgb(100%,100%,100%);fill-opacity:1;" d="M 189.0625 374.808594 L 169.375 355.011719 L 169.375 373.074219 L 142.097656 349.15625 L 134.910156 362.515625 L 112.285156 343.546875 L 103.628906 311.464844 L 92.355469 323.257812 L 81.574219 302.722656 L 81.820312 260.164062 L 71.855469 270.226562 L 71.855469 229.648438 L 95.214844 176.78125 L 98.480469 173.480469 L 75.121094 162.757812 L 72.671875 138.347656 L 90.394531 119.789062 L 124.292969 121.519531 L 129.4375 142.222656 L 132.703125 138.925781 L 189.0625 131.996094 L 245.5 138.925781 L 248.929688 142.472656 L 254.15625 121.519531 L 287.972656 119.789062 L 305.777344 138.347656 L 303.324219 162.757812 L 279.804688 173.5625 L 282.988281 176.78125 L 306.347656 229.648438 L 306.347656 270.226562 L 296.382812 260.164062 L 296.546875 302.722656 L 285.765625 323.257812 L 274.578125 311.464844 L 265.917969 343.546875 L 243.210938 362.515625 L 236.105469 349.15625 L 208.746094 373.074219 L 208.746094 355.011719 L 189.0625 374.808594 "/>
</g>
<path style=" stroke:none;fill-rule:evenodd;fill:rgb(89.408875%,54.899597%,30.979919%);fill-opacity:1;" d="M 157.042969 323.257812 L 165.539062 338.1875 L 212.585938 338.1875 L 221.160156 323.257812 L 195.1875 316.167969 L 182.933594 316.167969 L 157.042969 323.257812 "/>
<path style=" stroke:none;fill-rule:evenodd;fill:rgb(92.549133%,69.799805%,49.409485%);fill-opacity:1;" d="M 167.578125 231.792969 L 140.300781 273.195312 L 140.300781 314.269531 L 155.980469 330.101562 L 189.0625 321.195312 L 222.140625 330.101562 L 237.820312 314.269531 L 237.820312 273.195312 L 210.625 231.792969 L 200.414062 221.234375 L 177.789062 221.234375 L 167.578125 231.792969 "/>
<path style=" stroke:none;fill-rule:evenodd;fill:rgb(6.269836%,5.879211%,5.099487%);fill-opacity:1;" d="M 189.0625 275.589844 L 199.433594 279.710938 L 209.726562 283.753906 L 209.726562 300 L 199.433594 304.125 L 189.0625 308.164062 L 178.769531 304.125 L 168.398438 300 L 168.398438 283.753906 L 178.769531 279.710938 L 189.0625 275.589844 "/>
<path style=" stroke:none;fill-rule:evenodd;fill:rgb(6.269836%,5.879211%,5.099487%);fill-opacity:1;" d="M 257.097656 214.058594 L 212.417969 229.152344 L 219.199219 236.742188 L 255.789062 230.964844 Z M 121.105469 213.070312 L 165.78125 228.164062 L 158.921875 235.75 L 122.332031 229.980469 L 121.105469 213.070312 "/>
<path style=" stroke:none;fill-rule:evenodd;fill:rgb(94.119263%,80.778503%,67.449951%);fill-opacity:1;" d="M 93.910156 124.242188 L 77.734375 138.757812 L 79.207031 158.964844 L 109.753906 174.554688 L 100.605469 176.78125 L 77.410156 228.988281 L 77.410156 259.175781 L 82.226562 229.484375 L 104.933594 181.480469 L 122.738281 174.058594 L 84.761719 156.574219 L 83.289062 140.242188 L 93.910156 124.242188 "/>
<path style=" stroke:none;fill-rule:evenodd;fill:rgb(94.119263%,80.778503%,67.449951%);fill-opacity:1;" d="M 179.179688 224.121094 L 169.460938 232.535156 L 143.160156 274.183594 L 143.160156 312.125 L 157.042969 326.144531 L 178.6875 320.535156 L 158.269531 321.28125 L 147.078125 310.804688 L 147.160156 274.84375 L 172.398438 234.515625 L 179.179688 224.121094 "/>
<path style=" stroke:none;fill-rule:evenodd;fill:rgb(94.119263%,80.778503%,67.449951%);fill-opacity:1;" d="M 85.984375 252.824219 L 85.984375 301.320312 L 94.234375 315.835938 L 89.988281 299.917969 L 85.984375 252.824219 "/>
<path style=" stroke:none;fill-rule:evenodd;fill:rgb(94.119263%,80.778503%,67.449951%);fill-opacity:1;" d="M 102.074219 292.082031 L 116.695312 340.660156 L 135.644531 357.238281 L 119.882812 337.9375 L 102.074219 292.082031 "/>
</g>
</svg>
