<?xml version="1.0" encoding="UTF-8"?>
<svg xmlns="http://www.w3.org/2000/svg" xmlns:xlink="http://www.w3.org/1999/xlink" width="375pt" height="374.999991pt" viewBox="0 0 375 374.999991" version="1.2">
<defs>
<clipPath id="clip1">
  <path d="M 1 262 L 189 262 L 189 373.773438 L 1 373.773438 Z M 1 262 "/>
</clipPath>
<clipPath id="clip2">
  <path d="M 1 2 L 374 2 L 374 373.773438 L 1 373.773438 Z M 1 2 "/>
</clipPath>
</defs>
<g id="surface1">
<path style=" stroke:none;fill-rule:nonzero;fill:rgb(0%,72.938538%,100%);fill-opacity:1;" d="M 287.484375 315.097656 C 287.152344 315.097656 286.820312 314.953125 286.59375 314.667969 C 286.203125 314.175781 286.285156 313.460938 286.777344 313.070312 C 299.519531 302.957031 310.609375 291.015625 319.738281 277.585938 C 322.238281 273.921875 324.632812 270.0625 326.863281 266.105469 C 329.121094 262.089844 331.21875 257.953125 333.101562 253.808594 C 338.699219 241.460938 342.699219 228.421875 344.984375 215.050781 C 346.207031 207.921875 346.949219 200.632812 347.183594 193.390625 C 347.25 191.621094 347.28125 189.835938 347.28125 187.929688 C 347.28125 164.960938 342.511719 142.796875 333.101562 122.046875 C 331.21875 117.902344 329.121094 113.765625 326.859375 109.746094 C 326.554688 109.199219 326.746094 108.507812 327.296875 108.199219 C 327.84375 107.890625 328.539062 108.085938 328.847656 108.632812 C 331.136719 112.707031 333.265625 116.902344 335.175781 121.109375 C 344.71875 142.15625 349.558594 164.636719 349.558594 187.929688 C 349.558594 189.863281 349.527344 191.675781 349.460938 193.46875 C 349.21875 200.8125 348.46875 208.203125 347.230469 215.433594 C 344.910156 228.996094 340.855469 242.222656 335.175781 254.75 C 333.265625 258.949219 331.136719 263.148438 328.847656 267.222656 C 326.585938 271.234375 324.15625 275.152344 321.625 278.867188 C 312.367188 292.488281 301.117188 304.59375 288.195312 314.851562 C 287.984375 315.019531 287.734375 315.097656 287.484375 315.097656 "/>
<path style=" stroke:none;fill-rule:nonzero;fill:rgb(0%,72.938538%,100%);fill-opacity:1;" d="M 313.601562 89.132812 C 313.265625 89.132812 312.933594 88.988281 312.710938 88.703125 L 312.660156 88.640625 C 312.476562 88.410156 312.292969 88.175781 312.101562 87.949219 C 308.867188 83.921875 305.394531 80.003906 301.765625 76.300781 C 294.273438 68.644531 286.015625 61.734375 277.214844 55.761719 C 276.695312 55.40625 276.558594 54.695312 276.910156 54.179688 C 277.265625 53.65625 277.976562 53.523438 278.496094 53.875 C 287.417969 59.9375 295.796875 66.945312 303.394531 74.707031 C 307.074219 78.46875 310.59375 82.441406 313.867188 86.511719 C 314.054688 86.738281 314.246094 86.984375 314.441406 87.222656 L 314.492188 87.289062 C 314.882812 87.78125 314.800781 88.492188 314.308594 88.886719 C 314.101562 89.054688 313.851562 89.132812 313.601562 89.132812 "/>
<path style=" stroke:none;fill-rule:nonzero;fill:rgb(0%,72.938538%,100%);fill-opacity:1;" d="M 277.84375 55.957031 C 277.625 55.957031 277.398438 55.890625 277.203125 55.757812 C 274.988281 54.25 272.710938 52.777344 270.429688 51.390625 C 268.945312 50.488281 267.402344 49.589844 265.71875 48.640625 C 263.402344 47.335938 261.015625 46.074219 258.625 44.890625 C 256.882812 44.019531 255.128906 43.183594 253.417969 42.402344 C 239.75 36.214844 225.289062 31.996094 210.445312 29.867188 C 197.054688 27.941406 183.128906 27.722656 169.675781 29.210938 C 167.582031 29.449219 165.519531 29.71875 163.5625 30.007812 C 156.195312 31.117188 148.851562 32.753906 141.726562 34.875 C 134.878906 36.925781 128.101562 39.457031 121.582031 42.40625 C 117.441406 44.28125 113.304688 46.378906 109.28125 48.644531 C 108.730469 48.949219 108.039062 48.753906 107.730469 48.207031 C 107.421875 47.660156 107.613281 46.964844 108.164062 46.660156 C 112.246094 44.363281 116.441406 42.238281 120.644531 40.332031 C 127.253906 37.34375 134.128906 34.773438 141.074219 32.691406 C 148.300781 30.542969 155.753906 28.882812 163.226562 27.757812 C 165.210938 27.464844 167.296875 27.191406 169.421875 26.949219 C 183.070312 25.4375 197.1875 25.660156 210.765625 27.613281 C 225.828125 29.773438 240.492188 34.054688 254.355469 40.332031 C 256.097656 41.125 257.875 41.972656 259.640625 42.855469 C 262.058594 44.054688 264.484375 45.332031 266.835938 46.660156 C 268.542969 47.617188 270.105469 48.53125 271.613281 49.445312 C 273.929688 50.855469 276.238281 52.347656 278.488281 53.875 C 279.007812 54.230469 279.140625 54.941406 278.789062 55.457031 C 278.566406 55.78125 278.210938 55.957031 277.84375 55.957031 "/>
<path style=" stroke:none;fill-rule:nonzero;fill:rgb(0%,72.938538%,100%);fill-opacity:1;" d="M 61.402344 89.132812 C 61.152344 89.132812 60.902344 89.054688 60.691406 88.886719 C 60.199219 88.496094 60.117188 87.78125 60.507812 87.289062 C 70.769531 74.375 82.882812 63.132812 96.515625 53.875 C 100.257812 51.332031 104.175781 48.902344 108.164062 46.664062 C 108.710938 46.355469 109.40625 46.550781 109.714844 47.101562 C 110.023438 47.648438 109.824219 48.339844 109.277344 48.648438 C 105.347656 50.855469 101.484375 53.25 97.796875 55.757812 C 84.355469 64.882812 72.410156 75.96875 62.292969 88.703125 C 62.066406 88.984375 61.734375 89.132812 61.402344 89.132812 "/>
<path style=" stroke:none;fill-rule:nonzero;fill:rgb(0%,72.938538%,100%);fill-opacity:1;" d="M 87.515625 315.097656 C 87.269531 315.097656 87.019531 315.019531 86.808594 314.851562 C 85.65625 313.9375 84.414062 312.921875 83.011719 311.742188 C 74.253906 304.347656 66.261719 296.011719 59.253906 286.964844 C 57.171875 284.273438 55.195312 281.550781 53.375 278.863281 C 50.847656 275.152344 48.417969 271.234375 46.15625 267.222656 C 43.859375 263.144531 41.730469 258.949219 39.828125 254.75 C 35.847656 245.964844 32.640625 236.773438 30.300781 227.433594 C 27.078125 214.609375 25.441406 201.320312 25.441406 187.929688 C 25.441406 178.429688 26.269531 168.921875 27.902344 159.679688 C 29.039062 153.183594 30.605469 146.679688 32.550781 140.351562 C 34.542969 133.855469 36.992188 127.382812 39.828125 121.109375 C 41.730469 116.90625 43.863281 112.710938 46.152344 108.632812 C 46.460938 108.085938 47.160156 107.890625 47.703125 108.199219 C 48.253906 108.507812 48.449219 109.199219 48.140625 109.746094 C 45.878906 113.769531 43.78125 117.910156 41.898438 122.046875 C 39.105469 128.230469 36.691406 134.613281 34.726562 141.019531 C 32.808594 147.257812 31.265625 153.667969 30.144531 160.074219 C 28.535156 169.191406 27.71875 178.558594 27.71875 187.929688 C 27.71875 201.132812 29.328125 214.238281 32.511719 226.882812 C 34.816406 236.089844 37.972656 245.152344 41.898438 253.808594 C 43.78125 257.949219 45.878906 262.085938 48.140625 266.105469 C 50.371094 270.066406 52.765625 273.925781 55.261719 277.585938 C 57.054688 280.234375 59.003906 282.917969 61.058594 285.570312 C 67.960938 294.492188 75.84375 302.714844 84.476562 310.003906 C 85.863281 311.167969 87.085938 312.171875 88.222656 313.066406 C 88.714844 313.460938 88.796875 314.171875 88.410156 314.667969 C 88.183594 314.949219 87.851562 315.097656 87.515625 315.097656 "/>
<path style=" stroke:none;fill-rule:nonzero;fill:rgb(0%,72.938538%,100%);fill-opacity:1;" d="M 187.5 349.898438 C 176.121094 349.898438 164.777344 348.71875 153.792969 346.386719 C 146.292969 344.804688 138.851562 342.667969 131.6875 340.03125 C 131.597656 340.007812 131.511719 339.976562 131.433594 339.9375 C 127.917969 338.65625 124.289062 337.167969 120.648438 335.523438 C 116.4375 333.617188 112.238281 331.488281 108.164062 329.195312 C 107.613281 328.890625 107.421875 328.195312 107.730469 327.648438 C 108.039062 327.101562 108.730469 326.90625 109.28125 327.214844 C 113.296875 329.472656 117.4375 331.570312 121.582031 333.453125 C 125.199219 335.082031 128.800781 336.554688 132.285156 337.824219 C 132.308594 337.832031 132.332031 337.84375 132.355469 337.855469 C 132.371094 337.859375 132.390625 337.867188 132.40625 337.871094 C 139.492188 340.480469 146.847656 342.59375 154.265625 344.160156 C 165.097656 346.460938 176.277344 347.625 187.5 347.625 C 194.46875 347.625 201.488281 347.171875 208.363281 346.277344 C 223.960938 344.238281 239.117188 339.925781 253.417969 333.453125 C 257.5625 331.570312 261.703125 329.476562 265.722656 327.214844 C 266.269531 326.90625 266.964844 327.101562 267.273438 327.648438 C 267.582031 328.195312 267.386719 328.890625 266.835938 329.195312 C 262.761719 331.488281 258.5625 333.617188 254.355469 335.523438 C 239.851562 342.089844 224.476562 346.46875 208.65625 348.535156 C 201.683594 349.441406 194.566406 349.898438 187.5 349.898438 "/>
<path style=" stroke:none;fill-rule:nonzero;fill:rgb(0%,72.938538%,100%);fill-opacity:1;" d="M 311.445312 244.054688 C 310.828125 244.054688 310.21875 244 309.632812 243.878906 C 307.632812 243.480469 306.003906 242.34375 304.921875 240.589844 C 304.230469 239.46875 303.816406 238.125 303.664062 236.484375 C 303.566406 235.609375 303.550781 234.722656 303.550781 233.902344 C 303.546875 228.011719 304.023438 222.035156 304.484375 216.253906 L 304.59375 214.835938 C 305.421875 204.5 305.945312 195.886719 304.613281 187.050781 C 304.144531 183.984375 303.375 180.507812 301.1875 177.992188 C 299.683594 176.257812 297.738281 175.144531 295.40625 174.683594 C 288.753906 173.351562 280.679688 177.441406 276.453125 179.996094 C 276.007812 180.261719 275.578125 180.53125 275.15625 180.800781 C 272.1875 182.710938 269.515625 184.203125 266.972656 185.367188 C 266.40625 185.628906 265.726562 185.378906 265.464844 184.804688 C 265.203125 184.238281 265.457031 183.558594 266.023438 183.296875 C 268.464844 182.179688 271.046875 180.742188 273.917969 178.890625 C 274.363281 178.605469 274.8125 178.328125 275.277344 178.046875 C 279.78125 175.324219 288.445312 170.972656 295.851562 172.453125 C 298.6875 173.011719 301.0625 174.371094 302.90625 176.503906 C 305.492188 179.476562 306.375 183.519531 306.863281 186.710938 C 308.34375 196.507812 307.523438 206.769531 306.867188 215.015625 L 306.753906 216.429688 C 306.292969 222.171875 305.824219 228.101562 305.828125 233.902344 C 305.828125 234.660156 305.839844 235.46875 305.929688 236.25 C 306.050781 237.558594 306.355469 238.578125 306.859375 239.398438 C 307.621094 240.628906 308.675781 241.367188 310.082031 241.644531 C 313.707031 242.382812 318.789062 239.894531 322.222656 237.09375 C 322.410156 236.945312 322.578125 236.808594 322.746094 236.65625 C 330.703125 229.742188 338.273438 222.28125 345.257812 214.484375 C 345.675781 214.019531 346.398438 213.972656 346.863281 214.394531 C 347.335938 214.8125 347.375 215.53125 346.953125 216 C 339.90625 223.871094 332.265625 231.398438 324.246094 238.371094 C 324.050781 238.539062 323.855469 238.703125 323.65625 238.863281 C 320.546875 241.398438 315.71875 244.054688 311.445312 244.054688 "/>
<path style=" stroke:none;fill-rule:nonzero;fill:rgb(0%,72.938538%,100%);fill-opacity:1;" d="M 243.519531 180.023438 C 243.035156 180.023438 242.585938 179.714844 242.433594 179.230469 C 241.351562 175.804688 241.480469 171.683594 242.820312 166.984375 C 243.707031 163.820312 245.164062 160.375 247.039062 157.015625 C 248.125 155.082031 249.152344 153.3125 250.1875 151.597656 C 265.71875 125.738281 287.214844 103.148438 312.34375 86.277344 C 312.863281 85.929688 313.570312 86.066406 313.921875 86.589844 C 314.273438 87.109375 314.136719 87.816406 313.613281 88.167969 C 288.757812 104.855469 267.5 127.195312 252.136719 152.773438 C 251.117188 154.464844 250.097656 156.214844 249.027344 158.125 C 247.242188 161.328125 245.851562 164.605469 245.007812 167.601562 C 243.792969 171.867188 243.65625 175.550781 244.605469 178.542969 C 244.792969 179.144531 244.464844 179.785156 243.859375 179.96875 C 243.75 180.007812 243.632812 180.023438 243.519531 180.023438 "/>
<path style=" stroke:none;fill-rule:nonzero;fill:rgb(0%,72.938538%,100%);fill-opacity:1;" d="M 31.40625 228.296875 C 30.792969 228.296875 30.285156 227.804688 30.269531 227.1875 C 30.25 226.5625 30.75 226.035156 31.378906 226.023438 C 41.535156 225.761719 51.117188 218.285156 53.191406 209.003906 C 53.640625 207.011719 53.808594 204.988281 53.988281 202.855469 C 54.132812 201.160156 54.28125 199.40625 54.578125 197.675781 C 56.628906 185.96875 65.109375 177.296875 73.3125 168.910156 L 74.464844 167.730469 C 77.777344 164.332031 81.253906 160.699219 84.183594 156.871094 C 84.566406 156.371094 85.28125 156.28125 85.78125 156.660156 C 86.277344 157.042969 86.375 157.753906 85.992188 158.257812 C 82.984375 162.183594 79.457031 165.875 76.097656 169.316406 L 74.945312 170.5 C 66.613281 179.015625 58.746094 187.058594 56.824219 198.066406 C 56.542969 199.695312 56.398438 201.398438 56.257812 203.046875 C 56.078125 205.164062 55.894531 207.359375 55.414062 209.5 C 53.085938 219.925781 42.773438 228.007812 31.4375 228.296875 C 31.425781 228.296875 31.417969 228.296875 31.40625 228.296875 "/>
<path style=" stroke:none;fill-rule:nonzero;fill:rgb(0%,72.938538%,100%);fill-opacity:1;" d="M 33.636719 141.824219 C 33.066406 141.824219 32.574219 141.394531 32.507812 140.8125 C 32.4375 140.191406 32.882812 139.625 33.507812 139.554688 C 39.507812 138.875 45.507812 138.207031 51.503906 137.53125 L 52.410156 137.433594 C 55.734375 137.050781 59.058594 136.679688 62.382812 136.304688 L 67.949219 135.679688 C 68.574219 135.605469 69.140625 136.058594 69.210938 136.683594 C 69.28125 137.308594 68.832031 137.871094 68.207031 137.941406 L 62.636719 138.566406 C 59.3125 138.941406 55.992188 139.3125 52.664062 139.691406 L 51.757812 139.792969 C 45.757812 140.464844 39.765625 141.136719 33.769531 141.816406 C 33.722656 141.820312 33.679688 141.824219 33.636719 141.824219 "/>
<path style=" stroke:none;fill-rule:nonzero;fill:rgb(0%,72.938538%,100%);fill-opacity:1;" d="M 49.875 329.707031 C 45.929688 329.707031 42.890625 328.652344 40.777344 326.542969 C 32.207031 317.976562 42.878906 295.222656 53.339844 277.644531 C 53.664062 277.105469 54.359375 276.925781 54.902344 277.246094 C 55.441406 277.570312 55.621094 278.265625 55.296875 278.804688 C 36.128906 311.011719 38.984375 321.53125 42.390625 324.933594 C 47.28125 329.824219 59.902344 327.351562 77.933594 317.964844 C 80.75 316.507812 83.78125 314.828125 86.941406 312.980469 C 99.355469 305.722656 113.371094 296.101562 128.609375 284.386719 C 136.59375 278.253906 144.902344 271.550781 153.304688 264.46875 C 155.441406 262.667969 157.585938 260.832031 159.746094 258.96875 C 163.628906 255.625 167.589844 252.148438 171.523438 248.628906 C 171.996094 248.210938 172.710938 248.25 173.132812 248.71875 C 173.550781 249.1875 173.511719 249.90625 173.042969 250.324219 C 169.097656 253.855469 165.121094 257.339844 161.234375 260.691406 C 159.066406 262.5625 156.917969 264.398438 154.773438 266.207031 C 146.34375 273.316406 138.007812 280.039062 129.996094 286.191406 C 114.683594 297.964844 100.585938 307.636719 88.09375 314.945312 C 84.898438 316.8125 81.832031 318.507812 78.984375 319.984375 C 66.539062 326.460938 56.804688 329.707031 49.875 329.707031 "/>
<path style=" stroke:none;fill-rule:nonzero;fill:rgb(0%,72.938538%,100%);fill-opacity:1;" d="M 187.5 236.710938 C 187.199219 236.710938 186.890625 236.589844 186.667969 236.347656 C 186.238281 235.890625 186.265625 235.167969 186.722656 234.742188 C 194.800781 227.191406 202.949219 219.324219 210.929688 211.34375 C 221.699219 200.585938 232.164062 189.636719 242.046875 178.808594 C 242.261719 178.578125 242.464844 178.355469 242.671875 178.125 C 244.78125 175.8125 246.597656 173.800781 248.230469 171.964844 C 251.757812 168.027344 255.238281 164.066406 258.578125 160.1875 C 281.886719 133.179688 300.570312 108.015625 312.617188 87.425781 L 312.9375 86.875 C 313.207031 86.410156 313.472656 85.953125 313.734375 85.5 C 326.289062 63.582031 330.140625 48.453125 324.582031 42.894531 C 321.175781 39.492188 310.652344 36.636719 278.433594 55.796875 C 278.261719 55.898438 278.058594 55.957031 277.855469 55.957031 C 277.226562 55.957031 276.710938 55.445312 276.710938 54.820312 C 276.710938 54.371094 276.96875 53.980469 277.347656 53.796875 C 294.917969 43.351562 317.628906 32.726562 326.191406 41.285156 C 334.335938 49.425781 324.988281 70.4375 315.710938 86.628906 C 315.449219 87.085938 315.179688 87.550781 314.902344 88.019531 L 314.585938 88.566406 C 302.46875 109.28125 283.699219 134.5625 260.304688 161.675781 C 256.953125 165.5625 253.460938 169.535156 249.929688 173.476562 C 248.292969 175.316406 246.46875 177.339844 244.359375 179.652344 C 244.148438 179.886719 243.9375 180.117188 243.722656 180.351562 C 233.824219 191.195312 223.332031 202.167969 212.539062 212.953125 C 204.539062 220.949219 196.375 228.839844 188.277344 236.402344 C 188.058594 236.609375 187.777344 236.710938 187.5 236.710938 "/>
<g clip-path="url(#clip1)" clip-rule="nonzero">
<path style=" stroke:none;fill-rule:nonzero;fill:rgb(0%,72.938538%,100%);fill-opacity:1;" d="M 18.96875 373.773438 C 18.339844 373.773438 17.730469 373.753906 17.136719 373.714844 C 12.390625 373.414062 8.652344 371.929688 6.027344 369.304688 C 3.402344 366.679688 1.914062 362.941406 1.613281 358.203125 C 0.488281 340.324219 16.332031 307.578125 46.222656 266.003906 C 46.589844 265.488281 47.300781 265.375 47.8125 265.742188 C 48.320312 266.105469 48.441406 266.816406 48.070312 267.332031 C 18.484375 308.480469 2.792969 340.703125 3.882812 358.058594 C 4.152344 362.230469 5.414062 365.472656 7.636719 367.695312 C 9.859375 369.917969 13.105469 371.179688 17.277344 371.445312 C 34.652344 372.535156 66.882812 356.851562 108.054688 327.28125 C 115.003906 322.285156 122.214844 316.886719 129.484375 311.234375 C 144.332031 299.691406 159.726562 286.859375 175.246094 273.101562 C 179.136719 269.648438 183.003906 266.175781 186.734375 262.777344 C 187.199219 262.347656 187.921875 262.386719 188.34375 262.851562 C 188.765625 263.316406 188.734375 264.03125 188.269531 264.457031 C 184.53125 267.863281 180.65625 271.34375 176.757812 274.804688 C 161.199219 288.597656 145.765625 301.457031 130.882812 313.03125 C 123.589844 318.699219 116.359375 324.113281 109.386719 329.128906 C 69.171875 358.011719 37.210938 373.773438 18.96875 373.773438 "/>
</g>
<path style=" stroke:none;fill-rule:nonzero;fill:rgb(0%,72.938538%,100%);fill-opacity:1;" d="M 202.71875 250.617188 C 202.414062 250.617188 202.117188 250.492188 201.890625 250.261719 C 201.457031 249.800781 201.476562 249.082031 201.933594 248.652344 C 209.667969 241.328125 217.464844 233.75 225.097656 226.121094 C 225.226562 226 225.3125 225.914062 225.40625 225.820312 C 235.890625 215.34375 246.195312 204.660156 256.035156 194.054688 C 258.183594 191.75 260.292969 189.449219 262.390625 187.160156 C 263.304688 186.148438 264.226562 185.136719 265.144531 184.128906 L 265.65625 183.566406 C 268.035156 180.933594 270.394531 178.300781 272.722656 175.679688 C 288.742188 157.621094 303.382812 139.882812 316.242188 122.960938 C 319.847656 118.21875 323.445312 113.363281 326.929688 108.527344 C 356.515625 67.375 372.207031 35.152344 371.117188 17.796875 C 370.847656 13.625 369.589844 10.382812 367.363281 8.160156 C 365.140625 5.9375 361.894531 4.675781 357.722656 4.410156 C 340.335938 3.328125 308.109375 19.003906 266.945312 48.574219 C 266.4375 48.941406 265.722656 48.824219 265.355469 48.316406 C 264.988281 47.800781 265.105469 47.09375 265.617188 46.726562 C 307.207031 16.851562 339.96875 1.019531 357.867188 2.136719 C 362.609375 2.441406 366.347656 3.925781 368.972656 6.554688 C 371.597656 9.179688 373.085938 12.910156 373.390625 17.652344 C 374.511719 35.535156 358.671875 68.277344 328.777344 109.855469 C 325.28125 114.707031 321.671875 119.582031 318.050781 124.339844 C 305.160156 141.304688 290.484375 159.089844 274.421875 177.191406 C 272.09375 179.820312 269.730469 182.453125 267.34375 185.097656 L 266.828125 185.660156 C 265.914062 186.667969 264.992188 187.675781 264.074219 188.691406 C 261.972656 190.988281 259.851562 193.296875 257.703125 195.605469 C 247.84375 206.226562 237.519531 216.929688 227.019531 227.425781 C 226.90625 227.542969 226.792969 227.652344 226.675781 227.761719 C 219.058594 235.375 211.253906 242.972656 203.5 250.300781 C 203.28125 250.511719 203 250.617188 202.71875 250.617188 "/>
<path style=" stroke:none;fill-rule:nonzero;fill:rgb(0%,72.938538%,100%);fill-opacity:1;" d="M 325.136719 329.644531 C 317.789062 329.648438 305.953125 326.082031 286.910156 314.945312 C 282.761719 312.515625 278.359375 309.78125 273.832031 306.820312 C 255.914062 295.070312 235.144531 279.121094 213.765625 260.691406 C 209.886719 257.351562 205.914062 253.863281 201.957031 250.324219 C 200.765625 249.261719 199.5625 248.1875 198.363281 247.09375 C 194.359375 243.484375 190.445312 239.882812 186.722656 236.402344 C 184.027344 233.890625 181.136719 231.152344 177.621094 227.789062 C 172.570312 222.949219 167.46875 217.957031 162.464844 212.953125 C 152.371094 202.867188 142.53125 192.609375 133.21875 182.460938 C 132.589844 181.785156 131.972656 181.109375 131.351562 180.433594 L 131.273438 180.34375 C 129.296875 178.179688 127.179688 175.847656 125.066406 173.476562 C 121.527344 169.519531 118.039062 165.546875 114.695312 161.671875 C 91.304688 134.5625 72.535156 109.28125 60.417969 88.570312 C 42.4375 57.867188 44.183594 45.910156 48.808594 41.285156 C 53.542969 36.554688 65.871094 34.894531 97.734375 53.839844 C 98.277344 54.160156 98.457031 54.859375 98.132812 55.398438 C 97.8125 55.9375 97.113281 56.117188 96.574219 55.796875 C 72.695312 41.597656 56.300781 37.015625 50.421875 42.894531 C 44.679688 48.628906 48.929688 64.445312 62.382812 87.421875 C 74.429688 108.015625 93.113281 133.179688 116.421875 160.1875 C 119.75 164.050781 123.230469 168.015625 126.769531 171.960938 C 128.875 174.328125 130.988281 176.652344 132.953125 178.8125 L 133.035156 178.898438 C 133.648438 179.570312 134.265625 180.246094 134.890625 180.921875 C 144.1875 191.046875 154.003906 201.285156 164.074219 211.34375 C 169.070312 216.335938 174.15625 221.316406 179.195312 226.148438 C 182.703125 229.503906 185.585938 232.234375 188.277344 234.738281 C 191.992188 238.214844 195.898438 241.804688 199.890625 245.40625 C 201.089844 246.503906 202.289062 247.566406 203.476562 248.628906 C 207.421875 252.15625 211.382812 255.636719 215.253906 258.96875 C 236.558594 277.332031 257.242188 293.222656 275.078125 304.917969 C 279.574219 307.859375 283.941406 310.570312 288.0625 312.980469 C 311.050781 326.425781 326.875 330.671875 332.609375 324.933594 C 338.492188 319.054688 333.910156 302.675781 319.703125 278.804688 C 319.382812 278.265625 319.5625 277.570312 320.101562 277.246094 C 320.640625 276.925781 321.339844 277.101562 321.660156 277.644531 C 340.617188 309.496094 338.957031 321.816406 334.222656 326.542969 C 332.460938 328.304688 329.640625 329.644531 325.136719 329.644531 "/>
<g clip-path="url(#clip2)" clip-rule="nonzero">
<path style=" stroke:none;fill-rule:nonzero;fill:rgb(0%,72.938538%,100%);fill-opacity:1;" d="M 356.058594 373.773438 C 339.347656 373.773438 310.683594 360.332031 274.929688 335.679688 C 271.867188 333.570312 268.730469 331.363281 265.617188 329.132812 C 260.246094 325.273438 254.558594 321.046875 248.703125 316.570312 C 234.871094 305.972656 220.542969 294.242188 206.113281 281.710938 C 203.503906 279.4375 200.882812 277.136719 198.242188 274.804688 C 194.347656 271.347656 190.480469 267.867188 186.734375 264.457031 L 185.269531 263.117188 C 180.878906 259.097656 176.246094 254.789062 171.503906 250.300781 C 163.675781 242.902344 155.761719 235.203125 147.980469 227.425781 C 146.234375 225.679688 144.503906 223.941406 142.777344 222.195312 C 134.480469 213.800781 126.238281 205.214844 118.285156 196.667969 C 117.980469 196.332031 117.667969 196 117.363281 195.675781 L 116.234375 194.457031 C 114.449219 192.53125 112.6875 190.609375 110.933594 188.695312 C 107.527344 184.960938 104.042969 181.09375 100.578125 177.191406 C 94.96875 170.871094 89.464844 164.515625 84.21875 158.296875 C 78.394531 151.398438 72.664062 144.40625 67.1875 137.519531 C 59.648438 128.019531 52.597656 118.710938 46.222656 109.855469 C 16.332031 68.28125 0.488281 35.535156 1.613281 17.652344 C 1.914062 12.910156 3.402344 9.179688 6.027344 6.554688 C 8.652344 3.925781 12.390625 2.441406 17.136719 2.136719 C 35.035156 1.007812 67.796875 16.851562 109.386719 46.726562 C 109.898438 47.09375 110.011719 47.800781 109.644531 48.316406 C 109.277344 48.824219 108.570312 48.941406 108.054688 48.574219 C 66.890625 19.003906 34.652344 3.3125 17.277344 4.410156 C 13.105469 4.675781 9.859375 5.9375 7.636719 8.160156 C 5.414062 10.382812 4.152344 13.625 3.882812 17.796875 C 2.792969 35.15625 18.484375 67.375 48.070312 108.527344 C 54.421875 117.355469 61.453125 126.632812 68.972656 136.101562 C 74.433594 142.972656 80.148438 149.949219 85.957031 156.832031 C 91.191406 163.03125 96.6875 169.375 102.28125 175.683594 C 105.742188 179.574219 109.21875 183.4375 112.613281 187.160156 C 114.363281 189.070312 116.121094 190.988281 117.90625 192.914062 L 119.03125 194.125 C 119.335938 194.453125 119.652344 194.792969 119.960938 195.125 C 127.894531 203.648438 136.117188 212.21875 144.398438 220.59375 C 146.121094 222.339844 147.847656 224.074219 149.589844 225.816406 C 157.359375 233.582031 165.257812 241.265625 173.066406 248.652344 C 177.800781 253.125 182.425781 257.425781 186.8125 261.441406 L 188.273438 262.777344 C 192.003906 266.175781 195.871094 269.652344 199.757812 273.105469 C 202.386719 275.429688 205 277.726562 207.609375 279.992188 C 222.003906 292.5 236.292969 304.195312 250.085938 314.765625 C 255.921875 319.226562 261.59375 323.4375 266.945312 327.28125 C 270.046875 329.507812 273.167969 331.703125 276.222656 333.808594 C 312.882812 359.085938 341.859375 372.464844 357.722656 371.445312 C 361.894531 371.179688 365.140625 369.917969 367.363281 367.695312 C 369.589844 365.472656 370.847656 362.230469 371.117188 358.054688 C 372.207031 340.703125 356.515625 308.480469 326.929688 267.332031 C 326.5625 266.816406 326.679688 266.105469 327.1875 265.742188 C 327.703125 265.375 328.410156 265.488281 328.777344 266.003906 C 358.671875 307.578125 374.511719 340.324219 373.390625 358.203125 C 373.085938 362.945312 371.597656 366.679688 368.972656 369.304688 C 366.347656 371.929688 362.609375 373.414062 357.867188 373.714844 C 357.28125 373.753906 356.679688 373.773438 356.058594 373.773438 "/>
</g>
<path style=" stroke:none;fill-rule:nonzero;fill:rgb(0%,72.938538%,100%);fill-opacity:1;" d="M 208.507812 348.542969 C 208.050781 348.542969 207.617188 348.261719 207.441406 347.808594 C 205.453125 342.601562 204.273438 336.601562 203.234375 331.308594 C 202.824219 329.230469 202.441406 327.265625 202.023438 325.421875 C 201.683594 323.914062 201.363281 322.09375 200.992188 319.988281 C 199.761719 313.007812 198.078125 303.4375 194.132812 298.050781 C 192.980469 296.46875 191.746094 295.378906 190.359375 294.71875 C 185.527344 292.410156 178.3125 295 168.90625 302.421875 C 166.574219 304.261719 164.082031 306.417969 161.503906 308.835938 C 158.246094 311.882812 155.351562 314.859375 153.238281 317.03125 C 152.757812 317.527344 152.3125 317.984375 151.90625 318.398438 C 150.4375 319.898438 148.519531 322.210938 146.300781 324.882812 C 142.410156 329.570312 137.566406 335.40625 132.8125 339.601562 C 132.789062 339.625 132.761719 339.644531 132.738281 339.660156 C 132.292969 340.105469 131.546875 340.121094 131.105469 339.675781 C 130.664062 339.230469 130.644531 338.53125 131.089844 338.085938 C 131.167969 338.007812 131.25 337.9375 131.335938 337.871094 C 135.949219 333.792969 140.714844 328.046875 144.546875 323.429688 C 146.800781 320.71875 148.746094 318.375 150.28125 316.804688 C 150.683594 316.394531 151.125 315.9375 151.605469 315.449219 C 153.734375 313.257812 156.648438 310.257812 159.945312 307.175781 C 162.570312 304.714844 165.109375 302.515625 167.496094 300.636719 C 177.640625 292.632812 185.660156 289.949219 191.339844 292.664062 C 193.050781 293.480469 194.609375 294.84375 195.972656 296.710938 C 200.226562 302.519531 201.96875 312.390625 203.234375 319.597656 C 203.601562 321.671875 203.917969 323.464844 204.246094 324.921875 C 204.667969 326.796875 205.058594 328.777344 205.46875 330.871094 C 206.542969 336.328125 207.652344 341.972656 209.570312 347 C 209.796875 347.585938 209.5 348.242188 208.914062 348.46875 C 208.78125 348.519531 208.644531 348.542969 208.507812 348.542969 "/>
<path style=" stroke:none;fill-rule:nonzero;fill:rgb(0%,72.938538%,100%);fill-opacity:1;" d="M 179.683594 136.710938 C 178.449219 136.710938 177.238281 136.585938 176.066406 136.335938 C 174.277344 135.964844 172.539062 135.285156 170.910156 134.3125 C 169.5 133.464844 168.230469 132.445312 167.128906 131.277344 C 163.472656 127.421875 161.464844 121.960938 160.992188 114.582031 C 160.992188 114.570312 160.992188 114.5625 160.988281 114.554688 C 160.917969 113.5 160.882812 112.390625 160.882812 111.171875 C 160.882812 108.585938 161.050781 105.757812 161.375 102.757812 C 161.5 101.597656 161.652344 100.382812 161.828125 99.15625 L 163.710938 85.730469 C 164.246094 81.921875 164.777344 78.113281 165.320312 74.308594 C 165.503906 72.980469 165.6875 71.65625 165.875 70.332031 L 165.898438 70.15625 C 166.109375 68.636719 166.320312 67.121094 166.523438 65.59375 C 168.023438 54.046875 168.398438 44.527344 165.347656 35.585938 C 165.121094 34.921875 164.882812 34.296875 164.617188 33.675781 C 164.003906 32.230469 163.265625 30.824219 162.429688 29.488281 C 162.097656 28.953125 162.257812 28.25 162.792969 27.917969 C 163.328125 27.585938 164.027344 27.746094 164.359375 28.28125 C 165.257812 29.714844 166.050781 31.234375 166.710938 32.785156 C 167 33.457031 167.257812 34.136719 167.503906 34.851562 C 171.050781 45.253906 170.027344 56.328125 168.785156 65.886719 C 168.578125 67.425781 168.367188 68.949219 168.152344 70.46875 L 168.128906 70.648438 C 167.9375 71.976562 167.757812 73.292969 167.574219 74.617188 C 167.035156 78.433594 166.5 82.238281 165.96875 86.046875 L 164.085938 99.472656 C 163.910156 100.679688 163.761719 101.867188 163.640625 103 C 163.324219 105.917969 163.160156 108.667969 163.160156 111.171875 C 163.160156 112.347656 163.195312 113.410156 163.265625 114.421875 C 163.265625 114.449219 163.265625 114.472656 163.265625 114.5 C 163.703125 121.261719 165.507812 126.261719 168.785156 129.714844 C 169.746094 130.734375 170.851562 131.621094 172.082031 132.359375 C 173.488281 133.199219 174.988281 133.789062 176.535156 134.109375 C 181.609375 135.1875 187.597656 133.542969 192.964844 129.589844 C 195.339844 127.847656 197.535156 125.6875 199.3125 123.339844 C 200.136719 122.265625 200.886719 121.125 201.539062 119.945312 C 203.269531 116.84375 204.726562 113.351562 206.136719 108.957031 C 206.414062 108.089844 206.679688 107.222656 206.9375 106.351562 C 207.523438 104.375 208.082031 102.335938 208.621094 100.367188 C 209.613281 96.738281 210.636719 92.984375 211.894531 89.367188 C 212.449219 87.761719 213.0625 86.179688 213.707031 84.671875 C 215.269531 81.058594 217.214844 77.535156 219.492188 74.203125 C 227.621094 62.296875 240.050781 52.335938 258.613281 42.859375 C 259.171875 42.574219 259.859375 42.792969 260.144531 43.355469 C 260.429688 43.914062 260.207031 44.597656 259.648438 44.886719 C 241.4375 54.183594 229.277344 63.90625 221.371094 75.484375 C 219.175781 78.699219 217.304688 82.09375 215.800781 85.574219 C 215.175781 87.027344 214.585938 88.554688 214.046875 90.113281 C 212.816406 93.660156 211.796875 97.375 210.816406 100.964844 C 210.273438 102.949219 209.714844 105 209.121094 107 C 208.855469 107.894531 208.585938 108.773438 208.304688 109.652344 C 206.851562 114.191406 205.332031 117.816406 203.53125 121.054688 C 202.820312 122.328125 202.011719 123.5625 201.125 124.71875 C 199.214844 127.234375 196.863281 129.554688 194.316406 131.421875 C 189.632812 134.867188 184.46875 136.710938 179.683594 136.710938 "/>
</g>
</svg>
