<?xml version="1.0" encoding="UTF-8"?>
<svg xmlns="http://www.w3.org/2000/svg" xmlns:xlink="http://www.w3.org/1999/xlink" width="375pt" height="374.999991pt" viewBox="0 0 375 374.999991" version="1.2">
<defs>
<clipPath id="clip1">
  <path d="M 1 261 L 189 261 L 189 372.75 L 1 372.75 Z M 1 261 "/>
</clipPath>
<clipPath id="clip2">
  <path d="M 1 1 L 374 1 L 374 372.75 L 1 372.75 Z M 1 1 "/>
</clipPath>
</defs>
<g id="surface1">
<path style=" stroke:none;fill-rule:nonzero;fill:rgb(100%,100%,100%);fill-opacity:1;" d="M 287.484375 314.074219 C 287.152344 314.074219 286.820312 313.929688 286.59375 313.644531 C 286.203125 313.152344 286.285156 312.4375 286.777344 312.046875 C 299.519531 301.933594 310.609375 289.996094 319.738281 276.5625 C 322.238281 272.898438 324.632812 269.039062 326.863281 265.082031 C 329.121094 261.070312 331.21875 256.929688 333.101562 252.785156 C 338.699219 240.4375 342.699219 227.398438 344.984375 214.03125 C 346.207031 206.902344 346.949219 199.613281 347.183594 192.367188 C 347.25 190.597656 347.28125 188.8125 347.28125 186.90625 C 347.28125 163.9375 342.511719 141.773438 333.101562 121.023438 C 331.21875 116.878906 329.121094 112.742188 326.859375 108.726562 C 326.554688 108.175781 326.746094 107.484375 327.296875 107.175781 C 327.84375 106.867188 328.539062 107.0625 328.847656 107.609375 C 331.136719 111.683594 333.265625 115.882812 335.175781 120.085938 C 344.71875 141.132812 349.558594 163.613281 349.558594 186.90625 C 349.558594 188.839844 349.527344 190.652344 349.460938 192.445312 C 349.21875 199.789062 348.46875 207.183594 347.230469 214.414062 C 344.910156 227.972656 340.855469 241.199219 335.175781 253.726562 C 333.265625 257.929688 331.136719 262.125 328.847656 266.199219 C 326.585938 270.210938 324.15625 274.128906 321.625 277.84375 C 312.367188 291.464844 301.117188 303.570312 288.195312 313.828125 C 287.984375 313.996094 287.734375 314.074219 287.484375 314.074219 "/>
<path style=" stroke:none;fill-rule:nonzero;fill:rgb(100%,100%,100%);fill-opacity:1;" d="M 313.601562 88.109375 C 313.265625 88.109375 312.933594 87.964844 312.710938 87.679688 L 312.660156 87.621094 C 312.476562 87.386719 312.292969 87.152344 312.101562 86.925781 C 308.867188 82.898438 305.394531 78.980469 301.765625 75.277344 C 294.273438 67.621094 286.015625 60.710938 277.214844 54.738281 C 276.695312 54.386719 276.558594 53.675781 276.910156 53.15625 C 277.265625 52.632812 277.976562 52.5 278.496094 52.855469 C 287.417969 58.914062 295.796875 65.921875 303.394531 73.683594 C 307.074219 77.445312 310.59375 81.417969 313.867188 85.488281 C 314.054688 85.71875 314.246094 85.960938 314.441406 86.199219 L 314.492188 86.265625 C 314.882812 86.757812 314.800781 87.472656 314.308594 87.863281 C 314.101562 88.03125 313.851562 88.109375 313.601562 88.109375 "/>
<path style=" stroke:none;fill-rule:nonzero;fill:rgb(100%,100%,100%);fill-opacity:1;" d="M 277.84375 54.933594 C 277.625 54.933594 277.398438 54.867188 277.203125 54.734375 C 274.988281 53.226562 272.710938 51.753906 270.429688 50.367188 C 268.945312 49.464844 267.402344 48.570312 265.71875 47.617188 C 263.402344 46.3125 261.015625 45.050781 258.625 43.871094 C 256.882812 43 255.128906 42.164062 253.417969 41.378906 C 239.75 35.195312 225.289062 30.972656 210.445312 28.84375 C 197.054688 26.917969 183.128906 26.699219 169.675781 28.1875 C 167.582031 28.425781 165.519531 28.695312 163.5625 28.984375 C 156.195312 30.09375 148.851562 31.730469 141.726562 33.851562 C 134.878906 35.902344 128.101562 38.433594 121.582031 41.382812 C 117.441406 43.257812 113.304688 45.355469 109.28125 47.621094 C 108.730469 47.925781 108.039062 47.730469 107.730469 47.183594 C 107.421875 46.636719 107.613281 45.945312 108.164062 45.636719 C 112.246094 43.34375 116.441406 41.214844 120.644531 39.308594 C 127.253906 36.320312 134.128906 33.75 141.074219 31.671875 C 148.300781 29.519531 155.753906 27.859375 163.226562 26.738281 C 165.210938 26.441406 167.296875 26.167969 169.421875 25.925781 C 183.070312 24.414062 197.1875 24.636719 210.765625 26.589844 C 225.828125 28.75 240.492188 33.03125 254.355469 39.308594 C 256.097656 40.101562 257.875 40.949219 259.640625 41.832031 C 262.058594 43.03125 264.484375 44.3125 266.835938 45.636719 C 268.542969 46.59375 270.105469 47.507812 271.613281 48.421875 C 273.929688 49.835938 276.238281 51.324219 278.488281 52.855469 C 279.007812 53.210938 279.140625 53.917969 278.789062 54.4375 C 278.566406 54.757812 278.210938 54.933594 277.84375 54.933594 "/>
<path style=" stroke:none;fill-rule:nonzero;fill:rgb(100%,100%,100%);fill-opacity:1;" d="M 61.402344 88.109375 C 61.152344 88.109375 60.902344 88.03125 60.691406 87.863281 C 60.199219 87.472656 60.117188 86.761719 60.507812 86.265625 C 70.769531 73.351562 82.882812 62.109375 96.515625 52.855469 C 100.257812 50.308594 104.175781 47.882812 108.164062 45.640625 C 108.710938 45.332031 109.40625 45.527344 109.714844 46.078125 C 110.023438 46.625 109.824219 47.320312 109.277344 47.625 C 105.347656 49.835938 101.484375 52.226562 97.796875 54.734375 C 84.355469 63.863281 72.410156 74.945312 62.292969 87.679688 C 62.066406 87.964844 61.734375 88.109375 61.402344 88.109375 "/>
<path style=" stroke:none;fill-rule:nonzero;fill:rgb(100%,100%,100%);fill-opacity:1;" d="M 87.515625 314.074219 C 87.269531 314.074219 87.019531 313.996094 86.808594 313.828125 C 85.65625 312.917969 84.414062 311.898438 83.011719 310.722656 C 74.253906 303.324219 66.261719 294.988281 59.253906 285.941406 C 57.171875 283.25 55.195312 280.527344 53.375 277.839844 C 50.847656 274.128906 48.417969 270.210938 46.15625 266.199219 C 43.859375 262.121094 41.730469 257.925781 39.828125 253.726562 C 35.847656 244.945312 32.640625 235.753906 30.300781 226.414062 C 27.078125 213.589844 25.441406 200.296875 25.441406 186.90625 C 25.441406 177.40625 26.269531 167.902344 27.902344 158.65625 C 29.039062 152.160156 30.605469 145.65625 32.550781 139.328125 C 34.542969 132.832031 36.992188 126.359375 39.828125 120.085938 C 41.730469 115.882812 43.863281 111.6875 46.152344 107.609375 C 46.460938 107.0625 47.160156 106.867188 47.703125 107.175781 C 48.253906 107.484375 48.449219 108.175781 48.140625 108.726562 C 45.878906 112.746094 43.78125 116.886719 41.898438 121.023438 C 39.105469 127.207031 36.691406 133.589844 34.726562 139.996094 C 32.808594 146.234375 31.265625 152.648438 30.144531 159.050781 C 28.535156 168.167969 27.71875 177.535156 27.71875 186.90625 C 27.71875 200.109375 29.328125 213.214844 32.511719 225.859375 C 34.816406 235.066406 37.972656 244.128906 41.898438 252.785156 C 43.78125 256.925781 45.878906 261.0625 48.140625 265.082031 C 50.371094 269.042969 52.765625 272.902344 55.261719 276.5625 C 57.054688 279.210938 59.003906 281.894531 61.058594 284.546875 C 67.960938 293.46875 75.84375 301.691406 84.476562 308.980469 C 85.863281 310.144531 87.085938 311.148438 88.222656 312.046875 C 88.714844 312.4375 88.796875 313.152344 88.410156 313.644531 C 88.183594 313.925781 87.851562 314.074219 87.515625 314.074219 "/>
<path style=" stroke:none;fill-rule:nonzero;fill:rgb(100%,100%,100%);fill-opacity:1;" d="M 187.5 348.875 C 176.121094 348.875 164.777344 347.695312 153.792969 345.363281 C 146.292969 343.78125 138.851562 341.644531 131.6875 339.007812 C 131.597656 338.984375 131.511719 338.953125 131.433594 338.914062 C 127.917969 337.632812 124.289062 336.144531 120.648438 334.503906 C 116.4375 332.59375 112.238281 330.46875 108.164062 328.171875 C 107.613281 327.867188 107.421875 327.171875 107.730469 326.625 C 108.039062 326.078125 108.730469 325.882812 109.28125 326.191406 C 113.296875 328.449219 117.4375 330.546875 121.582031 332.429688 C 125.199219 334.058594 128.800781 335.53125 132.285156 336.800781 C 132.308594 336.8125 132.332031 336.820312 132.355469 336.832031 C 132.371094 336.835938 132.390625 336.84375 132.40625 336.847656 C 139.492188 339.457031 146.847656 341.574219 154.265625 343.136719 C 165.097656 345.4375 176.277344 346.601562 187.5 346.601562 C 194.46875 346.601562 201.488281 346.152344 208.363281 345.253906 C 223.960938 343.21875 239.117188 338.902344 253.417969 332.429688 C 257.5625 330.546875 261.703125 328.453125 265.722656 326.191406 C 266.269531 325.882812 266.964844 326.078125 267.273438 326.625 C 267.582031 327.171875 267.386719 327.867188 266.835938 328.171875 C 262.761719 330.46875 258.5625 332.59375 254.355469 334.5 C 239.851562 341.070312 224.476562 345.445312 208.65625 347.511719 C 201.683594 348.417969 194.566406 348.875 187.5 348.875 "/>
<path style=" stroke:none;fill-rule:nonzero;fill:rgb(100%,100%,100%);fill-opacity:1;" d="M 311.445312 243.03125 C 310.828125 243.03125 310.21875 242.976562 309.632812 242.855469 C 307.632812 242.457031 306.003906 241.320312 304.921875 239.570312 C 304.230469 238.445312 303.816406 237.101562 303.664062 235.460938 C 303.566406 234.585938 303.550781 233.703125 303.550781 232.882812 C 303.546875 226.992188 304.023438 221.011719 304.484375 215.230469 L 304.59375 213.8125 C 305.421875 203.476562 305.945312 194.863281 304.613281 186.027344 C 304.144531 182.960938 303.375 179.488281 301.1875 176.972656 C 299.683594 175.234375 297.738281 174.121094 295.40625 173.660156 C 288.753906 172.332031 280.679688 176.417969 276.453125 178.972656 C 276.007812 179.242188 275.578125 179.507812 275.15625 179.78125 C 272.1875 181.6875 269.515625 183.179688 266.972656 184.34375 C 266.40625 184.605469 265.726562 184.355469 265.464844 183.78125 C 265.203125 183.214844 265.457031 182.535156 266.023438 182.273438 C 268.464844 181.15625 271.046875 179.71875 273.917969 177.867188 C 274.363281 177.585938 274.8125 177.304688 275.277344 177.023438 C 279.78125 174.300781 288.445312 169.949219 295.851562 171.429688 C 298.6875 171.988281 301.0625 173.351562 302.90625 175.480469 C 305.492188 178.453125 306.375 182.496094 306.863281 185.6875 C 308.34375 195.488281 307.523438 205.75 306.867188 213.992188 L 306.753906 215.40625 C 306.292969 221.148438 305.824219 227.078125 305.828125 232.878906 C 305.828125 233.636719 305.839844 234.445312 305.929688 235.226562 C 306.050781 236.535156 306.355469 237.558594 306.859375 238.375 C 307.621094 239.605469 308.675781 240.34375 310.082031 240.625 C 313.707031 241.359375 318.789062 238.871094 322.222656 236.074219 C 322.410156 235.925781 322.578125 235.785156 322.746094 235.632812 C 330.703125 228.71875 338.273438 221.261719 345.257812 213.460938 C 345.675781 212.996094 346.398438 212.953125 346.863281 213.371094 C 347.335938 213.789062 347.375 214.511719 346.953125 214.976562 C 339.90625 222.847656 332.265625 230.375 324.246094 237.347656 C 324.050781 237.519531 323.855469 237.679688 323.65625 237.839844 C 320.546875 240.378906 315.71875 243.03125 311.445312 243.03125 "/>
<path style=" stroke:none;fill-rule:nonzero;fill:rgb(100%,100%,100%);fill-opacity:1;" d="M 243.519531 179 C 243.035156 179 242.585938 178.691406 242.433594 178.207031 C 241.351562 174.78125 241.480469 170.660156 242.820312 165.960938 C 243.707031 162.796875 245.164062 159.351562 247.039062 155.992188 C 248.125 154.058594 249.152344 152.289062 250.1875 150.574219 C 265.71875 124.71875 287.214844 102.125 312.34375 85.253906 C 312.863281 84.90625 313.570312 85.042969 313.921875 85.566406 C 314.273438 86.085938 314.136719 86.796875 313.613281 87.144531 C 288.757812 103.832031 267.5 126.171875 252.136719 151.75 C 251.117188 153.441406 250.097656 155.191406 249.027344 157.101562 C 247.242188 160.304688 245.851562 163.582031 245.007812 166.578125 C 243.792969 170.847656 243.65625 174.527344 244.605469 177.523438 C 244.792969 178.121094 244.464844 178.761719 243.859375 178.945312 C 243.75 178.984375 243.632812 179 243.519531 179 "/>
<path style=" stroke:none;fill-rule:nonzero;fill:rgb(100%,100%,100%);fill-opacity:1;" d="M 31.40625 227.273438 C 30.792969 227.273438 30.285156 226.78125 30.269531 226.167969 C 30.25 225.539062 30.75 225.015625 31.378906 225 C 41.535156 224.738281 51.117188 217.261719 53.191406 207.980469 C 53.640625 205.988281 53.808594 203.96875 53.988281 201.832031 C 54.132812 200.136719 54.28125 198.382812 54.578125 196.65625 C 56.628906 184.949219 65.109375 176.273438 73.3125 167.886719 L 74.464844 166.707031 C 77.777344 163.3125 81.253906 159.675781 84.183594 155.851562 C 84.566406 155.347656 85.28125 155.257812 85.78125 155.636719 C 86.277344 156.019531 86.375 156.734375 85.992188 157.234375 C 82.984375 161.160156 79.457031 164.851562 76.097656 168.292969 L 74.945312 169.476562 C 66.613281 177.992188 58.746094 186.035156 56.824219 197.046875 C 56.542969 198.671875 56.398438 200.375 56.257812 202.023438 C 56.078125 204.140625 55.894531 206.335938 55.414062 208.476562 C 53.085938 218.902344 42.773438 226.984375 31.4375 227.273438 C 31.425781 227.273438 31.417969 227.273438 31.40625 227.273438 "/>
<path style=" stroke:none;fill-rule:nonzero;fill:rgb(100%,100%,100%);fill-opacity:1;" d="M 33.636719 140.800781 C 33.066406 140.800781 32.574219 140.371094 32.507812 139.789062 C 32.4375 139.167969 32.882812 138.601562 33.507812 138.535156 C 39.507812 137.851562 45.507812 137.183594 51.503906 136.511719 L 52.410156 136.410156 C 55.734375 136.03125 59.058594 135.65625 62.382812 135.285156 L 67.949219 134.65625 C 68.574219 134.582031 69.140625 135.035156 69.210938 135.660156 C 69.28125 136.285156 68.832031 136.847656 68.207031 136.917969 L 62.636719 137.542969 C 59.3125 137.917969 55.992188 138.289062 52.664062 138.671875 L 51.757812 138.769531 C 45.757812 139.445312 39.765625 140.113281 33.769531 140.792969 C 33.722656 140.796875 33.679688 140.800781 33.636719 140.800781 "/>
<path style=" stroke:none;fill-rule:nonzero;fill:rgb(100%,100%,100%);fill-opacity:1;" d="M 49.875 328.6875 C 45.929688 328.6875 42.890625 327.632812 40.777344 325.523438 C 32.207031 316.953125 42.878906 294.199219 53.339844 276.621094 C 53.664062 276.082031 54.359375 275.902344 54.902344 276.226562 C 55.441406 276.546875 55.621094 277.246094 55.296875 277.785156 C 36.128906 309.988281 38.984375 320.507812 42.390625 323.914062 C 47.28125 328.800781 59.902344 326.328125 77.933594 316.945312 C 80.75 315.484375 83.78125 313.804688 86.941406 311.957031 C 99.355469 304.699219 113.371094 295.078125 128.609375 283.363281 C 136.59375 277.230469 144.902344 270.53125 153.304688 263.445312 C 155.441406 261.644531 157.585938 259.808594 159.746094 257.945312 C 163.628906 254.601562 167.589844 251.125 171.523438 247.605469 C 171.996094 247.1875 172.710938 247.226562 173.132812 247.695312 C 173.550781 248.164062 173.511719 248.882812 173.042969 249.300781 C 169.097656 252.832031 165.121094 256.320312 161.234375 259.671875 C 159.066406 261.539062 156.917969 263.378906 154.773438 265.183594 C 146.34375 272.292969 138.007812 279.015625 129.996094 285.167969 C 114.683594 296.941406 100.585938 306.613281 88.09375 313.921875 C 84.898438 315.789062 81.832031 317.484375 78.984375 318.960938 C 66.539062 325.4375 56.804688 328.6875 49.875 328.6875 "/>
<path style=" stroke:none;fill-rule:nonzero;fill:rgb(100%,100%,100%);fill-opacity:1;" d="M 187.5 235.6875 C 187.199219 235.6875 186.890625 235.566406 186.667969 235.324219 C 186.238281 234.867188 186.265625 234.144531 186.722656 233.71875 C 194.800781 226.167969 202.949219 218.300781 210.929688 210.320312 C 221.699219 199.5625 232.164062 188.617188 242.046875 177.785156 C 242.261719 177.554688 242.464844 177.332031 242.671875 177.101562 C 244.78125 174.789062 246.597656 172.777344 248.230469 170.941406 C 251.757812 167.007812 255.238281 163.042969 258.578125 159.164062 C 281.886719 132.15625 300.570312 106.996094 312.617188 86.402344 L 312.9375 85.851562 C 313.207031 85.386719 313.472656 84.929688 313.734375 84.476562 C 326.289062 62.5625 330.140625 47.429688 324.582031 41.871094 C 321.175781 38.46875 310.652344 35.613281 278.433594 54.773438 C 278.261719 54.878906 278.058594 54.933594 277.855469 54.933594 C 277.226562 54.933594 276.710938 54.425781 276.710938 53.796875 C 276.710938 53.347656 276.96875 52.957031 277.347656 52.773438 C 294.917969 42.328125 317.628906 31.703125 326.191406 40.261719 C 334.335938 48.402344 324.988281 69.414062 315.710938 85.605469 C 315.449219 86.0625 315.179688 86.527344 314.902344 86.996094 L 314.585938 87.546875 C 302.46875 108.261719 283.699219 133.539062 260.304688 160.652344 C 256.953125 164.539062 253.460938 168.511719 249.929688 172.453125 C 248.292969 174.296875 246.46875 176.316406 244.359375 178.628906 C 244.148438 178.863281 243.9375 179.09375 243.722656 179.328125 C 233.824219 190.175781 223.332031 201.144531 212.539062 211.929688 C 204.539062 219.925781 196.375 227.816406 188.277344 235.378906 C 188.058594 235.585938 187.777344 235.6875 187.5 235.6875 "/>
<g clip-path="url(#clip1)" clip-rule="nonzero">
<path style=" stroke:none;fill-rule:nonzero;fill:rgb(100%,100%,100%);fill-opacity:1;" d="M 18.96875 372.75 C 18.339844 372.75 17.730469 372.730469 17.136719 372.695312 C 12.390625 372.390625 8.652344 370.90625 6.027344 368.28125 C 3.402344 365.65625 1.914062 361.921875 1.613281 357.183594 C 0.488281 339.300781 16.332031 306.554688 46.222656 264.980469 C 46.589844 264.46875 47.300781 264.351562 47.8125 264.71875 C 48.320312 265.082031 48.441406 265.792969 48.070312 266.308594 C 18.484375 307.457031 2.792969 339.679688 3.882812 357.035156 C 4.152344 361.207031 5.414062 364.449219 7.636719 366.671875 C 9.859375 368.894531 13.105469 370.15625 17.277344 370.425781 C 34.652344 371.511719 66.882812 355.828125 108.054688 326.257812 C 115.003906 321.261719 122.214844 315.863281 129.484375 310.210938 C 144.332031 298.667969 159.726562 285.835938 175.246094 272.078125 C 179.136719 268.628906 183.003906 265.152344 186.734375 261.753906 C 187.199219 261.328125 187.921875 261.363281 188.34375 261.828125 C 188.765625 262.292969 188.734375 263.007812 188.269531 263.433594 C 184.53125 266.839844 180.65625 270.324219 176.757812 273.785156 C 161.199219 287.574219 145.765625 300.433594 130.882812 312.007812 C 123.589844 317.675781 116.359375 323.09375 109.386719 328.105469 C 69.171875 356.988281 37.210938 372.75 18.96875 372.75 "/>
</g>
<path style=" stroke:none;fill-rule:nonzero;fill:rgb(100%,100%,100%);fill-opacity:1;" d="M 202.71875 249.59375 C 202.414062 249.59375 202.117188 249.472656 201.890625 249.238281 C 201.457031 248.777344 201.476562 248.058594 201.933594 247.628906 C 209.667969 240.304688 217.464844 232.726562 225.097656 225.097656 C 225.226562 224.980469 225.3125 224.890625 225.40625 224.796875 C 235.890625 214.320312 246.195312 203.636719 256.035156 193.035156 C 258.183594 190.726562 260.292969 188.425781 262.390625 186.136719 C 263.304688 185.125 264.226562 184.113281 265.144531 183.105469 L 265.65625 182.542969 C 268.035156 179.910156 270.394531 177.277344 272.722656 174.65625 C 288.742188 156.601562 303.382812 138.859375 316.242188 121.9375 C 319.847656 117.195312 323.445312 112.339844 326.929688 107.503906 C 356.515625 66.351562 372.207031 34.128906 371.117188 16.773438 C 370.847656 12.601562 369.589844 9.363281 367.363281 7.140625 C 365.140625 4.914062 361.894531 3.652344 357.722656 3.386719 C 340.335938 2.304688 308.109375 17.980469 266.945312 47.550781 C 266.4375 47.917969 265.722656 47.800781 265.355469 47.292969 C 264.988281 46.777344 265.105469 46.070312 265.617188 45.703125 C 307.207031 15.828125 339.96875 0 357.867188 1.117188 C 362.609375 1.417969 366.347656 2.902344 368.972656 5.53125 C 371.597656 8.15625 373.085938 11.890625 373.390625 16.628906 C 374.511719 34.511719 358.671875 67.253906 328.777344 108.832031 C 325.28125 113.683594 321.671875 118.558594 318.050781 123.316406 C 305.160156 140.28125 290.484375 158.066406 274.421875 176.167969 C 272.09375 178.796875 269.730469 181.429688 267.34375 184.074219 L 266.828125 184.640625 C 265.914062 185.644531 264.992188 186.652344 264.074219 187.671875 C 261.972656 189.96875 259.851562 192.273438 257.703125 194.582031 C 247.84375 205.203125 237.519531 215.910156 227.019531 226.402344 C 226.90625 226.519531 226.792969 226.628906 226.675781 226.738281 C 219.058594 234.351562 211.253906 241.949219 203.5 249.277344 C 203.28125 249.488281 203 249.59375 202.71875 249.59375 "/>
<path style=" stroke:none;fill-rule:nonzero;fill:rgb(100%,100%,100%);fill-opacity:1;" d="M 325.136719 328.621094 C 317.789062 328.625 305.953125 325.058594 286.910156 313.921875 C 282.761719 311.496094 278.359375 308.757812 273.832031 305.796875 C 255.914062 294.046875 235.144531 278.097656 213.765625 259.671875 C 209.886719 256.328125 205.914062 252.839844 201.957031 249.300781 C 200.765625 248.238281 199.5625 247.164062 198.363281 246.070312 C 194.359375 242.460938 190.445312 238.859375 186.722656 235.378906 C 184.027344 232.871094 181.136719 230.132812 177.621094 226.769531 C 172.570312 221.925781 167.46875 216.933594 162.464844 211.929688 C 152.371094 201.847656 142.53125 191.585938 133.21875 181.4375 C 132.589844 180.761719 131.972656 180.089844 131.351562 179.410156 L 131.273438 179.320312 C 129.296875 177.15625 127.179688 174.824219 125.066406 172.453125 C 121.527344 168.496094 118.039062 164.527344 114.695312 160.648438 C 91.304688 133.539062 72.535156 108.261719 60.417969 87.546875 C 42.4375 56.84375 44.183594 44.886719 48.808594 40.261719 C 53.542969 35.53125 65.871094 33.871094 97.734375 52.816406 C 98.277344 53.136719 98.457031 53.835938 98.132812 54.375 C 97.8125 54.914062 97.113281 55.09375 96.574219 54.773438 C 72.695312 40.574219 56.300781 35.992188 50.421875 41.871094 C 44.679688 47.605469 48.929688 63.421875 62.382812 86.398438 C 74.429688 106.996094 93.113281 132.15625 116.421875 159.164062 C 119.75 163.03125 123.230469 166.992188 126.769531 170.9375 C 128.875 173.304688 130.988281 175.628906 132.953125 177.789062 L 133.035156 177.875 C 133.648438 178.546875 134.265625 179.222656 134.890625 179.898438 C 144.1875 190.023438 154.003906 200.261719 164.074219 210.320312 C 169.070312 215.3125 174.15625 220.292969 179.195312 225.125 C 182.703125 228.480469 185.585938 231.210938 188.277344 233.714844 C 191.992188 237.191406 195.898438 240.78125 199.890625 244.382812 C 201.089844 245.480469 202.289062 246.542969 203.476562 247.605469 C 207.421875 251.132812 211.382812 254.613281 215.253906 257.945312 C 236.558594 276.3125 257.242188 292.199219 275.078125 303.894531 C 279.574219 306.835938 283.941406 309.546875 288.0625 311.957031 C 311.050781 325.402344 326.875 329.648438 332.609375 323.914062 C 338.492188 318.035156 333.910156 301.652344 319.703125 277.785156 C 319.382812 277.246094 319.5625 276.546875 320.101562 276.226562 C 320.640625 275.902344 321.339844 276.078125 321.660156 276.621094 C 340.617188 308.472656 338.957031 320.792969 334.222656 325.523438 C 332.460938 327.28125 329.640625 328.621094 325.136719 328.621094 "/>
<g clip-path="url(#clip2)" clip-rule="nonzero">
<path style=" stroke:none;fill-rule:nonzero;fill:rgb(100%,100%,100%);fill-opacity:1;" d="M 356.058594 372.75 C 339.347656 372.75 310.683594 359.308594 274.929688 334.65625 C 271.867188 332.546875 268.730469 330.34375 265.617188 328.109375 C 260.246094 324.25 254.558594 320.023438 248.703125 315.546875 C 234.871094 304.953125 220.542969 293.222656 206.113281 280.6875 C 203.503906 278.414062 200.882812 276.117188 198.242188 273.785156 C 194.347656 270.324219 190.480469 266.84375 186.734375 263.433594 L 185.269531 262.09375 C 180.878906 258.074219 176.246094 253.765625 171.503906 249.277344 C 163.675781 241.878906 155.761719 234.183594 147.980469 226.402344 C 146.234375 224.660156 144.503906 222.917969 142.777344 221.171875 C 134.480469 212.78125 126.238281 204.191406 118.285156 195.644531 C 117.980469 195.308594 117.667969 194.976562 117.363281 194.65625 L 116.234375 193.433594 C 114.449219 191.507812 112.6875 189.585938 110.933594 187.671875 C 107.527344 183.941406 104.042969 180.070312 100.578125 176.167969 C 94.96875 169.847656 89.464844 163.492188 84.21875 157.273438 C 78.394531 150.378906 72.664062 143.382812 67.1875 136.496094 C 59.648438 126.996094 52.597656 117.6875 46.222656 108.832031 C 16.332031 67.257812 0.488281 34.511719 1.613281 16.628906 C 1.914062 11.890625 3.402344 8.15625 6.027344 5.53125 C 8.652344 2.902344 12.390625 1.417969 17.136719 1.117188 C 35.035156 -0.015625 67.796875 15.828125 109.386719 45.703125 C 109.898438 46.070312 110.011719 46.777344 109.644531 47.292969 C 109.277344 47.800781 108.570312 47.917969 108.054688 47.550781 C 66.890625 17.980469 34.652344 2.292969 17.277344 3.386719 C 13.105469 3.652344 9.859375 4.914062 7.636719 7.140625 C 5.414062 9.363281 4.152344 12.601562 3.882812 16.773438 C 2.792969 34.132812 18.484375 66.351562 48.070312 107.503906 C 54.421875 116.332031 61.453125 125.609375 68.972656 135.078125 C 74.433594 141.949219 80.148438 148.925781 85.957031 155.808594 C 91.191406 162.011719 96.6875 168.351562 102.28125 174.660156 C 105.742188 178.550781 109.21875 182.414062 112.613281 186.136719 C 114.363281 188.046875 116.121094 189.964844 117.90625 191.890625 L 119.03125 193.101562 C 119.335938 193.429688 119.652344 193.769531 119.960938 194.101562 C 127.894531 202.625 136.117188 211.195312 144.398438 219.570312 C 146.121094 221.316406 147.847656 223.050781 149.589844 224.792969 C 157.359375 232.558594 165.257812 240.242188 173.066406 247.628906 C 177.800781 252.101562 182.425781 256.40625 186.8125 260.417969 L 188.273438 261.757812 C 192.003906 265.15625 195.871094 268.628906 199.757812 272.082031 C 202.386719 274.40625 205 276.703125 207.609375 278.96875 C 222.003906 291.476562 236.292969 303.175781 250.085938 313.742188 C 255.921875 318.207031 261.59375 322.417969 266.945312 326.257812 C 270.046875 328.484375 273.167969 330.679688 276.222656 332.785156 C 312.882812 358.0625 341.859375 371.441406 357.722656 370.425781 C 361.894531 370.15625 365.140625 368.894531 367.363281 366.671875 C 369.589844 364.449219 370.847656 361.207031 371.117188 357.035156 C 372.207031 339.679688 356.515625 307.457031 326.929688 266.308594 C 326.5625 265.792969 326.679688 265.082031 327.1875 264.71875 C 327.703125 264.351562 328.410156 264.46875 328.777344 264.980469 C 358.671875 306.554688 374.511719 339.300781 373.390625 357.179688 C 373.085938 361.921875 371.597656 365.65625 368.972656 368.28125 C 366.347656 370.90625 362.609375 372.390625 357.867188 372.695312 C 357.28125 372.730469 356.679688 372.75 356.058594 372.75 "/>
</g>
<path style=" stroke:none;fill-rule:nonzero;fill:rgb(100%,100%,100%);fill-opacity:1;" d="M 208.507812 347.519531 C 208.050781 347.519531 207.617188 347.242188 207.441406 346.789062 C 205.453125 341.578125 204.273438 335.578125 203.234375 330.285156 C 202.824219 328.207031 202.441406 326.242188 202.023438 324.398438 C 201.683594 322.890625 201.363281 321.070312 200.992188 318.96875 C 199.761719 311.984375 198.078125 302.414062 194.132812 297.027344 C 192.980469 295.445312 191.746094 294.355469 190.359375 293.695312 C 185.527344 291.386719 178.3125 293.976562 168.90625 301.398438 C 166.574219 303.238281 164.082031 305.394531 161.503906 307.8125 C 158.246094 310.859375 155.351562 313.839844 153.238281 316.011719 C 152.757812 316.503906 152.3125 316.960938 151.90625 317.375 C 150.4375 318.875 148.519531 321.1875 146.300781 323.859375 C 142.410156 328.546875 137.566406 334.382812 132.8125 338.578125 C 132.789062 338.601562 132.761719 338.621094 132.738281 338.640625 C 132.292969 339.082031 131.546875 339.097656 131.105469 338.652344 C 130.664062 338.210938 130.644531 337.507812 131.089844 337.0625 C 131.167969 336.984375 131.25 336.914062 131.335938 336.847656 C 135.949219 332.769531 140.714844 327.023438 144.546875 322.40625 C 146.800781 319.695312 148.746094 317.351562 150.28125 315.78125 C 150.683594 315.371094 151.125 314.917969 151.605469 314.425781 C 153.734375 312.234375 156.648438 309.238281 159.945312 306.152344 C 162.570312 303.691406 165.109375 301.492188 167.496094 299.613281 C 177.640625 291.609375 185.660156 288.925781 191.339844 291.640625 C 193.050781 292.460938 194.609375 293.820312 195.972656 295.6875 C 200.226562 301.496094 201.96875 311.367188 203.234375 318.574219 C 203.601562 320.648438 203.917969 322.441406 204.246094 323.898438 C 204.667969 325.773438 205.058594 327.753906 205.46875 329.847656 C 206.542969 335.304688 207.652344 340.949219 209.570312 345.976562 C 209.796875 346.5625 209.5 347.21875 208.914062 347.445312 C 208.78125 347.496094 208.644531 347.519531 208.507812 347.519531 "/>
<path style=" stroke:none;fill-rule:nonzero;fill:rgb(100%,100%,100%);fill-opacity:1;" d="M 179.683594 135.6875 C 178.449219 135.6875 177.238281 135.5625 176.066406 135.3125 C 174.277344 134.941406 172.539062 134.265625 170.910156 133.289062 C 169.5 132.441406 168.230469 131.421875 167.128906 130.253906 C 163.472656 126.398438 161.464844 120.9375 160.992188 113.558594 C 160.992188 113.550781 160.992188 113.539062 160.988281 113.53125 C 160.917969 112.476562 160.882812 111.367188 160.882812 110.148438 C 160.882812 107.5625 161.050781 104.734375 161.375 101.734375 C 161.5 100.574219 161.652344 99.363281 161.828125 98.132812 L 163.710938 84.707031 C 164.246094 80.898438 164.777344 77.089844 165.320312 73.285156 C 165.503906 71.957031 165.6875 70.636719 165.875 69.308594 L 165.898438 69.132812 C 166.109375 67.617188 166.320312 66.097656 166.523438 64.570312 C 168.023438 53.027344 168.398438 43.503906 165.347656 34.5625 C 165.121094 33.898438 164.882812 33.273438 164.617188 32.652344 C 164.003906 31.207031 163.265625 29.800781 162.429688 28.464844 C 162.097656 27.929688 162.257812 27.230469 162.792969 26.898438 C 163.328125 26.5625 164.027344 26.726562 164.359375 27.257812 C 165.257812 28.691406 166.050781 30.210938 166.710938 31.761719 C 167 32.433594 167.257812 33.113281 167.503906 33.828125 C 171.050781 44.230469 170.027344 55.304688 168.785156 64.867188 C 168.578125 66.402344 168.367188 67.925781 168.152344 69.445312 L 168.128906 69.625 C 167.9375 70.953125 167.757812 72.269531 167.574219 73.59375 C 167.035156 77.410156 166.5 81.214844 165.96875 85.023438 L 164.085938 98.449219 C 163.910156 99.65625 163.761719 100.84375 163.640625 101.976562 C 163.324219 104.898438 163.160156 107.648438 163.160156 110.148438 C 163.160156 111.324219 163.195312 112.386719 163.265625 113.402344 C 163.265625 113.425781 163.265625 113.453125 163.265625 113.476562 C 163.703125 120.238281 165.507812 125.238281 168.785156 128.695312 C 169.746094 129.710938 170.851562 130.597656 172.082031 131.335938 C 173.488281 132.179688 174.988281 132.769531 176.535156 133.085938 C 181.609375 134.167969 187.597656 132.519531 192.964844 128.566406 C 195.339844 126.828125 197.535156 124.664062 199.3125 122.316406 C 200.136719 121.242188 200.886719 120.101562 201.539062 118.925781 C 203.269531 115.820312 204.726562 112.328125 206.136719 107.933594 C 206.414062 107.070312 206.679688 106.199219 206.9375 105.328125 C 207.523438 103.351562 208.082031 101.316406 208.621094 99.34375 C 209.613281 95.714844 210.636719 91.964844 211.894531 88.34375 C 212.449219 86.738281 213.0625 85.15625 213.707031 83.648438 C 215.269531 80.035156 217.214844 76.515625 219.492188 73.179688 C 227.621094 61.273438 240.050781 51.3125 258.613281 41.835938 C 259.171875 41.550781 259.859375 41.773438 260.144531 42.332031 C 260.429688 42.890625 260.207031 43.574219 259.648438 43.863281 C 241.4375 53.160156 229.277344 62.882812 221.371094 74.464844 C 219.175781 77.679688 217.304688 81.070312 215.800781 84.550781 C 215.175781 86.003906 214.585938 87.535156 214.046875 89.089844 C 212.816406 92.640625 211.796875 96.351562 210.816406 99.941406 C 210.273438 101.925781 209.714844 103.976562 209.121094 105.976562 C 208.855469 106.871094 208.585938 107.75 208.304688 108.628906 C 206.851562 113.167969 205.332031 116.792969 203.53125 120.03125 C 202.820312 121.304688 202.011719 122.539062 201.125 123.699219 C 199.214844 126.214844 196.863281 128.535156 194.316406 130.398438 C 189.632812 133.847656 184.46875 135.6875 179.683594 135.6875 "/>
</g>
</svg>
