<?xml version="1.0" encoding="UTF-8"?>
<svg xmlns="http://www.w3.org/2000/svg" xmlns:xlink="http://www.w3.org/1999/xlink" width="375pt" height="374.999991pt" viewBox="0 0 375 374.999991" version="1.2">
<defs>
<clipPath id="clip1">
  <path d="M 38.117188 18.257812 L 331.140625 18.257812 L 331.140625 225.359375 L 38.117188 225.359375 Z M 38.117188 18.257812 "/>
</clipPath>
<clipPath id="clip2">
  <path d="M 83.476562 121.683594 L 286.167969 121.683594 L 286.167969 342.003906 L 83.476562 342.003906 Z M 83.476562 121.683594 "/>
</clipPath>
</defs>
<g id="surface1">
<path style=" stroke:none;fill-rule:nonzero;fill:rgb(26.669312%,12.939453%,9.408569%);fill-opacity:1;" d="M 130.949219 132.886719 L 238.632812 132.886719 L 238.632812 154.890625 L 130.949219 154.890625 Z M 130.949219 132.886719 "/>
<g clip-path="url(#clip1)" clip-rule="nonzero">
<path style=" stroke:none;fill-rule:nonzero;fill:rgb(26.669312%,12.939453%,9.408569%);fill-opacity:1;" d="M 49.929688 83.390625 C 49.546875 84.667969 49.21875 85.960938 48.9375 87.261719 C 48.164062 90.855469 47.832031 94.445312 47.945312 97.933594 C 48.050781 101.527344 48.667969 105.195312 49.777344 108.839844 C 51.816406 115.582031 55.578125 122.1875 60.953125 128.476562 C 65.546875 133.84375 71.035156 138.8125 77.71875 143.632812 C 83.441406 147.742188 89.683594 151.558594 96.804688 155.269531 C 103.179688 158.582031 109.796875 161.601562 117.035156 164.453125 C 119.378906 165.375 121.945312 166.320312 124.875 167.367188 L 126.953125 168.101562 L 127.765625 170.136719 C 129.277344 173.972656 131.679688 177.410156 134.710938 180.113281 L 167.25 209.046875 C 172.203125 213.449219 178.417969 215.652344 184.628906 215.652344 C 190.839844 215.652344 197.050781 213.449219 202.007812 209.046875 L 234.546875 180.113281 C 237.582031 177.410156 239.984375 173.972656 241.492188 170.136719 L 242.308594 168.101562 L 244.398438 167.367188 C 247.304688 166.320312 249.878906 165.375 252.242188 164.453125 C 259.476562 161.601562 266.085938 158.582031 272.460938 155.269531 C 279.574219 151.558594 285.824219 147.742188 291.554688 143.632812 C 298.226562 138.8125 303.707031 133.84375 308.308594 128.476562 C 313.679688 122.1875 317.445312 115.582031 319.496094 108.847656 C 320.601562 105.195312 321.210938 101.527344 321.3125 97.945312 C 321.441406 94.445312 321.105469 90.855469 320.332031 87.269531 L 320.332031 87.261719 C 320.039062 85.960938 319.703125 84.667969 319.328125 83.390625 C 319.390625 84.761719 319.371094 86.128906 319.308594 87.488281 C 319.015625 94.488281 317.027344 101.089844 313.535156 106.582031 C 310.398438 111.601562 305.902344 116.148438 300.171875 120.09375 C 291.117188 126.296875 279.425781 130.992188 264.472656 134.410156 C 258.347656 135.792969 251.84375 136.90625 245.109375 137.699219 C 241.804688 138.097656 238.523438 138.414062 235.363281 138.644531 L 234.234375 138.707031 C 234.027344 138.707031 233.816406 138.726562 233.585938 138.726562 L 232.082031 138.832031 L 230.785156 138.035156 C 226.683594 135.519531 221.980469 134.199219 217.171875 134.199219 L 152.09375 134.199219 C 147.289062 134.199219 142.582031 135.519531 138.472656 138.035156 L 137.179688 138.832031 L 135.664062 138.726562 C 135.449219 138.726562 135.234375 138.707031 135.019531 138.707031 C 134.648438 138.6875 134.273438 138.664062 133.902344 138.644531 C 130.738281 138.414062 127.460938 138.097656 124.15625 137.699219 C 117.421875 136.90625 110.914062 135.792969 104.804688 134.410156 C 89.824219 130.992188 78.152344 126.296875 69.097656 120.101562 C 63.363281 116.148438 58.867188 111.601562 55.722656 106.582031 C 52.238281 101.09375 50.242188 94.492188 49.949219 87.492188 C 49.886719 86.136719 49.878906 84.761719 49.929688 83.390625 Z M 184.628906 225.359375 C 176.121094 225.359375 167.613281 222.339844 160.824219 216.300781 L 128.289062 187.367188 C 124.6875 184.160156 121.734375 180.199219 119.664062 175.796875 C 117.433594 175 115.398438 174.222656 113.496094 173.488281 C 105.9375 170.492188 99.019531 167.367188 92.34375 163.886719 C 84.800781 159.945312 78.171875 155.898438 72.066406 151.496094 C 64.746094 146.234375 58.707031 140.761719 53.601562 134.785156 C 47.351562 127.46875 42.949219 119.695312 40.515625 111.664062 C 39.160156 107.199219 38.402344 102.683594 38.269531 98.238281 C 38.128906 93.96875 38.535156 89.585938 39.472656 85.21875 C 40.332031 81.203125 41.617188 77.261719 43.285156 73.515625 C 43.71875 72.476562 44.144531 71.554688 44.589844 70.699219 L 45.949219 68.015625 C 46.210938 67.566406 46.464844 67.117188 46.71875 66.664062 C 47.367188 65.503906 48.042969 64.3125 48.839844 63.113281 C 52.558594 57.246094 57.035156 51.582031 62.523438 45.789062 L 88.617188 18.265625 L 70.269531 51.480469 C 66.8125 57.734375 64.136719 63.800781 62.3125 69.511719 L 62.269531 69.644531 C 61.949219 70.554688 61.6875 71.546875 61.410156 72.601562 C 61.285156 73.082031 61.15625 73.566406 61.023438 74.039062 L 60.515625 76.417969 C 60.378906 76.996094 60.261719 77.636719 60.160156 78.390625 L 60.136719 78.542969 C 59.660156 81.386719 59.484375 84.25 59.621094 87.050781 L 59.621094 87.082031 C 59.839844 92.382812 61.320312 97.332031 63.898438 101.390625 L 63.914062 101.414062 C 66.355469 105.308594 69.941406 108.902344 74.570312 112.09375 C 82.59375 117.59375 93.1875 121.800781 106.949219 124.953125 C 112.71875 126.253906 118.894531 127.300781 125.292969 128.078125 C 128.441406 128.457031 131.566406 128.75 134.582031 128.957031 L 134.777344 128.957031 C 140.078125 126.042969 146.03125 124.492188 152.09375 124.492188 L 217.171875 124.492188 C 223.234375 124.492188 229.195312 126.042969 234.484375 128.957031 L 234.675781 128.957031 C 237.683594 128.75 240.820312 128.457031 243.980469 128.078125 C 250.359375 127.300781 256.546875 126.253906 262.320312 124.953125 C 276.082031 121.800781 286.664062 117.59375 294.691406 112.089844 C 299.316406 108.90625 302.910156 105.3125 305.335938 101.414062 L 305.359375 101.390625 C 307.953125 97.332031 309.414062 92.382812 309.644531 87.082031 L 309.644531 87.050781 C 309.769531 84.246094 309.601562 81.386719 309.121094 78.542969 L 309.101562 78.390625 C 308.996094 77.636719 308.890625 76.996094 308.746094 76.417969 L 308.726562 76.332031 L 308.246094 74.039062 C 308.097656 73.566406 307.972656 73.085938 307.847656 72.605469 C 307.574219 71.550781 307.324219 70.554688 306.988281 69.640625 L 306.949219 69.511719 C 305.128906 63.800781 302.453125 57.734375 299 51.480469 L 280.640625 18.261719 L 306.738281 45.789062 C 312.238281 51.582031 316.714844 57.25 320.414062 63.113281 C 321.210938 64.3125 321.898438 65.507812 322.546875 66.667969 C 322.800781 67.117188 323.050781 67.570312 323.300781 68.015625 L 323.449219 68.269531 L 324.660156 70.695312 C 325.121094 71.550781 325.539062 72.476562 325.976562 73.511719 C 327.652344 77.257812 328.925781 81.199219 329.785156 85.226562 C 330.726562 89.585938 331.121094 93.972656 330.996094 98.25 C 330.851562 102.683594 330.097656 107.199219 328.738281 111.671875 C 326.3125 119.695312 321.921875 127.46875 315.667969 134.785156 C 310.566406 140.761719 304.523438 146.214844 297.203125 151.496094 C 291.097656 155.898438 284.464844 159.945312 276.917969 163.886719 C 270.246094 167.367188 263.324219 170.492188 255.773438 173.46875 C 253.851562 174.222656 251.820312 175 249.605469 175.796875 C 247.535156 180.199219 244.585938 184.160156 240.96875 187.367188 L 208.429688 216.300781 C 201.652344 222.339844 193.140625 225.359375 184.628906 225.359375 "/>
</g>
<g clip-path="url(#clip2)" clip-rule="nonzero">
<path style=" stroke:none;fill-rule:evenodd;fill:rgb(26.669312%,12.939453%,9.408569%);fill-opacity:1;" d="M 184.78125 342.003906 L 167.78125 324.902344 L 167.78125 340.507812 L 144.21875 319.84375 L 138.011719 331.386719 L 118.46875 314.996094 L 110.992188 287.277344 L 101.257812 297.46875 L 91.945312 279.722656 L 92.15625 242.957031 L 83.550781 251.648438 L 83.550781 216.589844 L 103.726562 170.914062 L 106.546875 168.0625 L 86.371094 158.800781 L 84.253906 137.707031 L 99.5625 121.675781 L 128.839844 123.171875 L 133.285156 141.058594 L 136.105469 138.207031 L 184.78125 132.222656 L 233.527344 138.207031 L 236.492188 141.273438 L 241.007812 123.171875 L 270.210938 121.675781 L 285.589844 137.707031 L 283.472656 158.800781 L 263.15625 168.136719 L 265.90625 170.914062 L 286.082031 216.589844 L 286.082031 251.648438 L 277.476562 242.957031 L 277.617188 279.722656 L 268.308594 297.46875 L 258.640625 287.277344 L 251.164062 314.996094 L 231.554688 331.386719 L 225.414062 319.84375 L 201.78125 340.507812 L 201.78125 324.902344 L 184.78125 342.003906 "/>
</g>
<path style=" stroke:none;fill-rule:evenodd;fill:rgb(89.408875%,54.899597%,30.979919%);fill-opacity:1;" d="M 157.128906 297.46875 L 164.464844 310.367188 L 205.097656 310.367188 L 212.503906 297.46875 L 190.074219 291.339844 L 179.492188 291.339844 L 157.128906 297.46875 "/>
<path style=" stroke:none;fill-rule:evenodd;fill:rgb(92.549133%,69.799805%,49.409485%);fill-opacity:1;" d="M 166.226562 218.441406 L 142.667969 254.214844 L 142.667969 289.699219 L 156.210938 303.382812 L 184.78125 295.683594 L 213.351562 303.382812 L 226.894531 289.699219 L 226.894531 254.214844 L 203.40625 218.441406 L 194.585938 209.324219 L 175.046875 209.324219 L 166.226562 218.441406 "/>
<path style=" stroke:none;fill-rule:evenodd;fill:rgb(6.269836%,5.879211%,5.099487%);fill-opacity:1;" d="M 184.78125 256.28125 L 193.742188 259.84375 L 202.628906 263.335938 L 202.628906 277.371094 L 193.742188 280.933594 L 184.78125 284.425781 L 175.894531 280.933594 L 166.933594 277.371094 L 166.933594 263.335938 L 175.894531 259.84375 L 184.78125 256.28125 "/>
<path style=" stroke:none;fill-rule:evenodd;fill:rgb(6.269836%,5.879211%,5.099487%);fill-opacity:1;" d="M 243.542969 203.121094 L 204.957031 216.164062 L 210.8125 222.71875 L 242.414062 217.730469 Z M 126.085938 202.269531 L 164.675781 215.308594 L 158.75 221.863281 L 127.148438 216.875 L 126.085938 202.269531 "/>
<path style=" stroke:none;fill-rule:evenodd;fill:rgb(94.119263%,80.778503%,67.449951%);fill-opacity:1;" d="M 102.597656 125.523438 L 88.628906 138.066406 L 89.898438 155.523438 L 116.28125 168.992188 L 108.378906 170.914062 L 88.347656 216.019531 L 88.347656 242.101562 L 92.507812 216.449219 L 112.121094 174.976562 L 127.5 168.5625 L 94.695312 153.457031 L 93.425781 139.347656 L 102.597656 125.523438 "/>
<path style=" stroke:none;fill-rule:evenodd;fill:rgb(94.119263%,80.778503%,67.449951%);fill-opacity:1;" d="M 176.246094 211.816406 L 167.851562 219.082031 L 145.136719 255.070312 L 145.136719 287.847656 L 157.128906 299.960938 L 175.820312 295.117188 L 158.1875 295.757812 L 148.519531 286.707031 L 148.59375 255.640625 L 170.390625 220.792969 L 176.246094 211.816406 "/>
<path style=" stroke:none;fill-rule:evenodd;fill:rgb(94.119263%,80.778503%,67.449951%);fill-opacity:1;" d="M 95.753906 236.613281 L 95.753906 278.511719 L 102.878906 291.054688 L 99.210938 277.300781 L 95.753906 236.613281 "/>
<path style=" stroke:none;fill-rule:evenodd;fill:rgb(94.119263%,80.778503%,67.449951%);fill-opacity:1;" d="M 109.652344 270.53125 L 122.277344 312.503906 L 138.644531 326.824219 L 125.03125 310.152344 L 109.652344 270.53125 "/>
</g>
</svg>
